<svg width="53" height="53" viewBox="0 0 53 53" fill="none" xmlns="http://www.w3.org/2000/svg">
<rect width="53" height="53" rx="5" fill="#FF5A5F"/>
<path d="M37.3529 27.7639C37.3449 27.0769 37.1805 26.3978 36.9239 25.7599C36.7254 25.2653 36.4969 24.7845 36.2723 24.3016C34.4881 20.4958 32.6156 16.7313 30.659 13.0079C30.3843 12.4878 30.1137 11.9638 29.823 11.4534C29.5363 10.9549 29.2035 10.4721 28.7725 10.0815C28.0849 9.43966 27.1627 9.05692 26.2165 9H25.7814C24.8071 9.04711 23.8548 9.44751 23.1572 10.1148C22.7422 10.4995 22.4214 10.9686 22.1428 11.4554C21.8561 11.9598 21.5895 12.4741 21.3188 12.9863C20.0037 15.483 18.7287 18.0012 17.4937 20.5351C16.756 22.0523 16.0263 23.5715 15.3226 25.1044C15.0319 25.7423 14.7673 26.4037 14.669 27.1005C14.4846 28.2762 14.7492 29.5127 15.3907 30.5216C15.9441 31.3989 16.774 32.1055 17.7423 32.5157C18.4941 32.8337 19.3261 32.9789 20.144 32.9318C21.2426 32.8749 22.3032 32.4883 23.2334 31.923C24.2698 31.2988 25.1579 30.4705 25.9839 29.603C26.7517 30.4136 27.5737 31.187 28.5239 31.7934C29.4401 32.3842 30.4866 32.8121 31.5852 32.9122C32.78 33.0339 34.015 32.7454 35.0174 32.0937C35.8994 31.5245 36.5951 30.6865 36.984 29.7267C37.2366 29.1045 37.3649 28.4332 37.3529 27.7639ZM25.9899 27.3105C25.6892 26.9651 25.4266 26.5921 25.1599 26.2212C24.7129 25.5813 24.3079 24.9101 23.9811 24.2035C23.7145 23.6166 23.498 23.0003 23.4158 22.3605C23.3557 21.8521 23.3697 21.3222 23.5601 20.8393C23.7305 20.3879 24.0573 19.9953 24.4723 19.7363C25.4607 19.1121 26.87 19.1788 27.7661 19.9365C28.2192 20.3153 28.4899 20.8747 28.558 21.4478C28.6462 22.2113 28.4698 22.9787 28.1972 23.6912C27.6819 25.0141 26.868 26.1976 25.9879 27.3105H25.9899ZM35.691 28.9298C35.4263 29.8228 34.7908 30.6021 33.9608 31.0535C33.2251 31.4558 32.345 31.5952 31.515 31.4598C30.4565 31.2988 29.5083 30.7493 28.6863 30.1016C28.0829 29.6266 27.5376 29.0829 27.0164 28.5235C27.8403 27.5048 28.6141 26.4391 29.2076 25.2732C29.7248 24.2525 30.1177 23.1475 30.1538 21.9993C30.1738 21.2711 30.0355 20.5292 29.6867 19.8815C29.2316 19.0159 28.4177 18.3506 27.4835 18.0287C26.6114 17.7244 25.6411 17.697 24.751 17.9443C23.911 18.1778 23.1452 18.6705 22.6199 19.3555C22.1568 19.9522 21.8942 20.6862 21.832 21.4301C21.7378 22.5018 22.0125 23.5715 22.4275 24.5587C23.0449 25.9994 23.9511 27.3027 24.9514 28.5117C24.5024 29.022 24.0092 29.497 23.486 29.9367C22.674 30.6099 21.7438 31.1948 20.6913 31.4186C19.8393 31.605 18.9211 31.5128 18.1413 31.1261C17.2271 30.6806 16.5254 29.8405 16.2608 28.8748C16.0583 28.1643 16.1024 27.3988 16.343 26.704C16.5435 26.1289 16.8141 25.5813 17.0687 25.0278C18.8329 21.2633 20.6853 17.538 22.6199 13.8539C22.9086 13.3063 23.1933 12.7547 23.498 12.215C23.7466 11.7812 24.0373 11.3533 24.4483 11.0491C24.8873 10.7135 25.4446 10.529 26.0019 10.5427C26.5793 10.5368 27.1527 10.7449 27.5957 11.108C28.0328 11.4633 28.3275 11.9481 28.5921 12.4309C29.1895 13.53 29.7649 14.6449 30.3402 15.7558C31.9801 18.9355 33.5579 22.1446 35.0675 25.3831C35.296 25.8856 35.5406 26.3861 35.693 26.916C35.8814 27.5716 35.8874 28.2782 35.693 28.9318L35.691 28.9298Z" fill="white"/>
<path d="M17.4296 35.8977C17.9228 35.7877 18.4641 36.1077 18.5924 36.5866C18.7508 37.0773 18.434 37.6484 17.9308 37.7917C17.4377 37.9625 16.8523 37.6661 16.6899 37.1852C16.5355 36.7789 16.6999 36.2902 17.0688 36.0488C17.177 35.9742 17.3033 35.9251 17.4316 35.8977H17.4296Z" fill="white"/>
<path d="M20.7657 39.0691C21.0624 38.7531 21.4814 38.5549 21.9144 38.4901C22.2011 38.4626 22.4938 38.4803 22.7744 38.5431C22.7704 38.9886 22.7744 39.4342 22.7744 39.8797C22.3314 39.7678 21.8522 39.7443 21.4172 39.9013C21.1827 39.9857 20.9661 40.1231 20.7957 40.3017C20.7576 40.3331 20.7677 40.3841 20.7637 40.4273C20.7657 41.6717 20.7637 42.9181 20.7637 44.1644C20.7596 44.2115 20.7717 44.2665 20.7496 44.3116C20.2585 44.3234 19.7673 44.3136 19.2761 44.3155C19.2761 42.4175 19.2761 40.5176 19.2761 38.6196C19.6891 38.6196 20.1041 38.6196 20.5171 38.6196C20.6073 38.6137 20.7055 38.6608 20.7376 38.7472C20.7697 38.8512 20.7596 38.9631 20.7617 39.0691H20.7657Z" fill="white"/>
<path d="M31.3566 39.073C31.7496 38.6746 32.3189 38.4783 32.8782 38.4783C33.4696 38.4646 34.0751 38.6353 34.5302 39.0102C34.8329 39.2418 35.0534 39.5676 35.1556 39.9307C35.286 40.3743 35.2739 40.8415 35.2719 41.2968C35.2719 42.3017 35.2719 43.3086 35.2719 44.3136C34.7767 44.3136 34.2816 44.3175 33.7864 44.3116C33.7864 43.3067 33.7864 42.3017 33.7864 41.2949C33.7864 40.9219 33.8044 40.5176 33.602 40.1859C33.4596 39.9464 33.181 39.8287 32.9103 39.8012C32.3971 39.7207 31.8598 39.9209 31.507 40.288C31.4689 40.3253 31.4368 40.3724 31.4408 40.4273C31.4368 40.5824 31.4609 40.7394 31.4468 40.8945C31.4268 41.1064 31.4569 41.3164 31.4508 41.5284C31.4428 41.9288 31.4448 42.3273 31.4508 42.7277C31.4228 43.2556 31.4709 43.7875 31.4388 44.3136C30.9456 44.3136 30.4525 44.3136 29.9593 44.3136C29.9593 42.4136 29.9553 40.5156 29.9593 38.6157C30.3402 38.6177 30.7231 38.6157 31.104 38.6157C31.2023 38.6098 31.3105 38.6628 31.3366 38.7609C31.3606 38.861 31.3526 38.967 31.3546 39.0711L31.3566 39.073Z" fill="white"/>
<path d="M16.8863 44.3141C16.8863 42.4141 16.8823 40.5162 16.8863 38.6162C17.3775 38.6162 17.8687 38.6162 18.3598 38.6162C18.3638 40.5162 18.3598 42.4141 18.3598 44.3141C17.8687 44.3141 17.3755 44.3141 16.8823 44.3141H16.8863Z" fill="white"/>
<path d="M15.9702 38.6181C15.5813 38.6181 15.1903 38.6181 14.8014 38.6161C14.6992 38.6161 14.5668 38.62 14.5167 38.726C14.4706 38.834 14.4887 38.9557 14.4847 39.0695C14.1599 38.7319 13.7028 38.5317 13.2357 38.4866C12.512 38.4238 11.7622 38.62 11.1808 39.0499C10.7017 39.3953 10.3488 39.8978 10.1624 40.4474C10.0742 40.7064 10.0281 40.9773 10 41.2482V41.6387C10.0421 42.4552 10.413 43.2619 11.0585 43.788C11.5457 44.1923 12.1732 44.418 12.8087 44.4573H13.1395C13.6427 44.4239 14.1398 44.2198 14.4847 43.8527C14.4887 43.9685 14.4706 44.0902 14.5147 44.2001C14.5608 44.2904 14.6691 44.314 14.7633 44.31C15.1643 44.31 15.5672 44.31 15.9702 44.31C15.9702 42.4121 15.9702 40.5141 15.9702 38.6161V38.6181ZM14.4385 42.5396C14.1378 42.8929 13.6687 43.101 13.1996 43.0853C12.6964 43.0892 12.1752 42.9008 11.8484 42.5141C11.5316 42.1451 11.4354 41.6329 11.5076 41.1638C11.5617 40.7849 11.7582 40.4199 12.0709 40.1863C12.3536 39.9684 12.7104 39.8546 13.0673 39.831C13.5985 39.7859 14.1599 40.0155 14.4806 40.4356C14.4987 41.0538 14.4806 41.676 14.4887 42.2963C14.4826 42.3787 14.5067 42.4768 14.4385 42.5396Z" fill="white"/>
<path d="M29.1094 40.2469C28.8808 39.6993 28.4739 39.2223 27.9587 38.9122C27.4294 38.5884 26.7919 38.4431 26.1704 38.4844C25.6792 38.5158 25.2001 38.7218 24.8593 39.0712C24.8593 38.0074 24.8593 36.9436 24.8593 35.8798C24.3641 35.8798 23.8669 35.8778 23.3718 35.8798C23.3738 38.6904 23.3678 41.5011 23.3758 44.3118C23.7868 44.3118 24.1977 44.3118 24.6067 44.3118C24.7089 44.3196 24.8192 44.2647 24.8473 44.1646C24.8673 44.0625 24.8593 43.9565 24.8613 43.8505C25.2061 44.2254 25.7113 44.4295 26.2205 44.459H26.5232C27.3472 44.4178 28.1551 44.0409 28.6724 43.4069C29.3961 42.5374 29.5384 41.2734 29.1094 40.2449V40.2469ZM27.3773 42.6434C27.0445 42.9457 26.5854 43.089 26.1363 43.085C25.6672 43.0949 25.2001 42.8848 24.9034 42.5296C24.8673 42.4923 24.8553 42.4432 24.8573 42.3942C24.8573 41.7425 24.8573 41.0909 24.8573 40.4393C25.142 40.0761 25.597 39.8485 26.0642 39.8269C26.5373 39.8131 27.0325 39.9486 27.3793 40.2763C27.7101 40.5766 27.8704 41.0261 27.8604 41.4618C27.8704 41.8976 27.7041 42.3451 27.3753 42.6454L27.3773 42.6434Z" fill="white"/>
<path d="M41.3364 39.5424C40.7069 38.7573 39.6283 38.3608 38.6239 38.5061C38.205 38.5708 37.806 38.7671 37.5133 39.0694C37.5093 38.0056 37.5133 36.9417 37.5133 35.8779C37.0181 35.8779 36.525 35.8779 36.0298 35.8779C36.0298 38.6886 36.0298 41.4993 36.0298 44.3099C36.4207 44.3119 36.8116 44.3099 37.2006 44.3119C37.3028 44.3119 37.4311 44.306 37.4832 44.2039C37.5293 44.094 37.5113 43.9704 37.5153 43.8526C37.8581 44.2196 38.3513 44.4218 38.8525 44.4571H39.1873C40.0012 44.4139 40.7991 44.041 41.3143 43.4169C41.7353 42.9183 41.9639 42.2824 42 41.6406V41.2598C41.9539 40.6396 41.7393 40.0252 41.3364 39.5385V39.5424ZM40.1796 42.4806C39.7867 42.9752 39.0951 43.1597 38.4816 43.0636C38.1067 42.9909 37.7459 42.7927 37.5233 42.4846C37.4993 42.2451 37.5213 42.0037 37.5133 41.7623C37.5193 41.3206 37.5013 40.8771 37.5213 40.4354C37.7459 40.1312 38.1067 39.9369 38.4776 39.8564C39.1632 39.7328 39.9611 39.9977 40.3059 40.618C40.6207 41.1911 40.5906 41.9585 40.1796 42.4806Z" fill="white"/>
</svg>
