<svg width="80" height="80" viewBox="0 0 80 80" fill="none" xmlns="http://www.w3.org/2000/svg">
<g filter="url(#filter0_i_4123_36)">
<rect width="80" height="80" rx="9" fill="#FF5A5F"/>
</g>
<path d="M57.2869 40.9127C57.2744 39.813 57.0167 38.7259 56.6145 37.7047C56.3035 36.913 55.9453 36.1432 55.5934 35.3702C52.797 29.2779 49.8624 23.2515 46.7957 17.2911C46.3653 16.4584 45.9411 15.6195 45.4855 14.8026C45.0362 14.0045 44.5146 13.2316 43.8391 12.6063C42.7614 11.5789 41.3161 10.9662 39.833 10.8751H39.1512C37.6242 10.9505 36.1318 11.5915 35.0383 12.6597C34.3879 13.2756 33.8852 14.0265 33.4485 14.8057C32.9992 15.6132 32.5813 16.4364 32.1571 17.2565C30.0959 21.2532 28.0976 25.2844 26.1621 29.3407C25.0059 31.7695 23.8622 34.2014 22.7593 36.6553C22.3037 37.6765 21.889 38.7353 21.735 39.8507C21.446 41.7328 21.8607 43.7123 22.8662 45.3273C23.7334 46.7318 25.0342 47.8629 26.5517 48.5196C27.73 49.0286 29.0339 49.2611 30.3159 49.1857C32.0377 49.0946 33.6998 48.4756 35.1577 47.5707C36.7821 46.5715 38.1741 45.2456 39.4686 43.8568C40.672 45.1545 41.9602 46.3924 43.4495 47.3633C44.8854 48.3091 46.5255 48.994 48.2474 49.1543C50.12 49.3491 52.0555 48.8872 53.6265 47.844C55.009 46.9328 56.0993 45.5912 56.7088 44.0548C57.1047 43.0587 57.3058 41.9842 57.2869 40.9127ZM39.478 40.1869C39.0067 39.6339 38.5951 39.037 38.1772 38.4431C37.4765 37.4188 36.8418 36.3443 36.3297 35.2131C35.9118 34.2737 35.5725 33.2871 35.4436 32.2628C35.3494 31.449 35.3714 30.6007 35.6699 29.8277C35.9369 29.1051 36.4491 28.4766 37.0995 28.0619C38.6485 27.0627 40.8573 27.1696 42.2618 28.3824C42.9719 28.9888 43.3961 29.8843 43.5029 30.8017C43.6412 32.024 43.3647 33.2525 42.9374 34.3931C42.1299 36.5108 40.8542 38.4054 39.4749 40.1869H39.478ZM54.6822 42.7791C54.2675 44.2087 53.2714 45.4561 51.9707 46.1788C50.8175 46.8229 49.4382 47.046 48.1374 46.8292C46.4784 46.5715 44.9922 45.6918 43.704 44.6549C42.7583 43.8945 41.9036 43.0242 41.0867 42.1287C42.3781 40.498 43.5909 38.7919 44.5209 36.9255C45.3316 35.2917 45.9474 33.5227 46.004 31.6846C46.0354 30.519 45.8186 29.3313 45.2719 28.2944C44.5586 26.9088 43.283 25.8436 41.8188 25.3283C40.452 24.8413 38.9313 24.7973 37.5362 25.1932C36.2197 25.5671 35.0195 26.3558 34.1963 27.4524C33.4705 28.4075 33.0589 29.5826 32.9615 30.7735C32.8138 32.489 33.2442 34.2014 33.8946 35.7818C34.8624 38.0881 36.2826 40.1744 37.8504 42.1099C37.1466 42.9268 36.3737 43.6871 35.5536 44.391C34.2811 45.4687 32.8232 46.405 31.1736 46.7632C29.8383 47.0617 28.3993 46.914 27.177 46.295C25.7442 45.5818 24.6445 44.237 24.2298 42.6911C23.9125 41.5537 23.9816 40.3283 24.3586 39.2161C24.6728 38.2954 25.097 37.4188 25.496 36.5328C28.261 30.5064 31.1642 24.5428 34.1963 18.6453C34.6487 17.7687 35.0949 16.8858 35.5725 16.0217C35.9621 15.3273 36.4177 14.6424 37.0618 14.1553C37.7499 13.6181 38.6234 13.3227 39.4968 13.3447C40.4018 13.3353 41.3004 13.6683 41.9947 14.2496C42.6797 14.8183 43.1416 15.5944 43.5563 16.3673C44.4927 18.1268 45.3944 19.9115 46.2962 21.6899C48.8663 26.78 51.3391 31.9172 53.705 37.1015C54.0632 37.9058 54.4466 38.7071 54.6854 39.5554C54.9807 40.6048 54.9901 41.736 54.6854 42.7822L54.6822 42.7791Z" fill="white"/>
<path d="M26.0616 53.9333C26.8346 53.7573 27.6829 54.2695 27.884 55.0361C28.1322 55.8216 27.6358 56.7359 26.8471 56.9653C26.0742 57.2387 25.1567 56.7642 24.9022 55.9944C24.6603 55.344 24.9179 54.5617 25.4961 54.1752C25.6657 54.0558 25.8637 53.9772 26.0648 53.9333H26.0616Z" fill="white"/>
<path d="M31.2899 59.0107C31.7549 58.5049 32.4116 58.1875 33.0903 58.0838C33.5396 58.0399 33.9983 58.0681 34.4382 58.1687C34.4319 58.8819 34.4382 59.5952 34.4382 60.3084C33.7438 60.1293 32.9929 60.0916 32.3111 60.343C31.9435 60.4781 31.6041 60.698 31.3371 60.9839C31.2774 61.0342 31.2931 61.1159 31.2868 61.185C31.2899 63.1771 31.2868 65.1722 31.2868 67.1674C31.2805 67.2428 31.2994 67.3308 31.2648 67.4031C30.495 67.4219 29.7252 67.4062 28.9554 67.4093C28.9554 64.371 28.9554 61.3296 28.9554 58.2912C29.6027 58.2912 30.2531 58.2912 30.9003 58.2912C31.0417 58.2818 31.1957 58.3572 31.2459 58.4955C31.2962 58.662 31.2805 58.8411 31.2836 59.0107H31.2899Z" fill="white"/>
<path d="M47.8892 59.017C48.505 58.3792 49.3974 58.065 50.274 58.065C51.2009 58.043 52.1498 58.3164 52.863 58.9165C53.3374 59.2872 53.6831 59.8088 53.8433 60.3901C54.0475 61.1002 54.0287 61.848 54.0255 62.5769C54.0255 64.1856 54.0255 65.7975 54.0255 67.4062C53.2495 67.4062 52.4734 67.4125 51.6973 67.4031C51.6973 65.7944 51.6973 64.1856 51.6973 62.5738C51.6973 61.9768 51.7256 61.3295 51.4082 60.7985C51.1852 60.4152 50.7484 60.2267 50.3243 60.1827C49.5199 60.0539 48.6778 60.3744 48.1248 60.9619C48.0651 61.0216 48.0149 61.097 48.0212 61.185C48.0149 61.4332 48.0526 61.6846 48.0306 61.9328C47.9992 62.2722 48.0463 62.6083 48.0369 62.9477C48.0243 63.5887 48.0274 64.2265 48.0369 64.8675C47.9929 65.7127 48.0683 66.5641 48.018 67.4062C47.2451 67.4062 46.4721 67.4062 45.6992 67.4062C45.6992 64.3647 45.6929 61.3264 45.6992 58.2849C46.2962 58.2881 46.8963 58.2849 47.4933 58.2849C47.6473 58.2755 47.8169 58.3603 47.8578 58.5174C47.8955 58.6777 47.8829 58.8474 47.886 59.0139L47.8892 59.017Z" fill="white"/>
<path d="M25.2101 67.4062C25.2101 64.3648 25.2038 61.3264 25.2101 58.285C25.9799 58.285 26.7497 58.285 27.5195 58.285C27.5258 61.3264 27.5195 64.3648 27.5195 67.4062C26.7497 67.4062 25.9768 67.4062 25.2038 67.4062H25.2101Z" fill="white"/>
<path d="M23.7742 58.2881C23.1647 58.2881 22.552 58.2881 21.9424 58.2849C21.7822 58.2849 21.5748 58.2912 21.4963 58.4609C21.424 58.6337 21.4523 58.8285 21.446 59.0108C20.937 58.4703 20.2206 58.1498 19.4885 58.0776C18.3542 57.977 17.1791 58.2912 16.2679 58.9793C15.517 59.5323 14.964 60.3367 14.6718 61.2164C14.5336 61.6312 14.4613 62.0648 14.4173 62.4984V63.1236C14.4833 64.4307 15.0646 65.7221 16.0763 66.5642C16.8398 67.2114 17.8232 67.5727 18.8193 67.6356H19.3377C20.1263 67.5822 20.9056 67.2554 21.446 66.6678C21.4523 66.8532 21.424 67.048 21.4931 67.224C21.5654 67.3685 21.7351 67.4062 21.8827 67.3999C22.5111 67.3999 23.1427 67.3999 23.7742 67.3999C23.7742 64.3616 23.7742 61.3233 23.7742 58.2849V58.2881ZM21.3737 64.5658C20.9024 65.1314 20.1672 65.4645 19.432 65.4393C18.6433 65.4456 17.8264 65.144 17.3142 64.525C16.8178 63.9343 16.667 63.1142 16.7801 62.3633C16.8649 61.7569 17.1728 61.1725 17.663 60.7986C18.106 60.4498 18.6653 60.2676 19.2246 60.2299C20.0572 60.1576 20.937 60.5252 21.4397 61.1976C21.468 62.1873 21.4397 63.1833 21.4523 64.1762C21.4428 64.3082 21.4805 64.4653 21.3737 64.5658Z" fill="white"/>
<path d="M44.367 60.896C44.0088 60.0193 43.371 59.2558 42.5635 58.7594C41.734 58.241 40.7348 58.0084 39.7608 58.0744C38.991 58.1247 38.24 58.4546 37.7059 59.0139C37.7059 57.3109 37.7059 55.6079 37.7059 53.905C36.9298 53.905 36.1506 53.9018 35.3745 53.905C35.3777 58.4043 35.3682 62.9037 35.3808 67.4031C36.0249 67.4031 36.669 67.4031 37.31 67.4031C37.4703 67.4156 37.6431 67.3277 37.6871 67.1674C37.7185 67.004 37.7059 66.8344 37.709 66.6647C38.2495 67.2648 39.0413 67.5916 39.8393 67.6387H40.3138C41.6051 67.5727 42.8714 66.9695 43.682 65.9546C44.8163 64.5627 45.0394 62.5392 44.367 60.8928V60.896ZM41.6523 64.7324C41.1307 65.2162 40.4112 65.4456 39.7074 65.4393C38.9721 65.455 38.24 65.1188 37.775 64.5501C37.7185 64.4904 37.6996 64.4119 37.7028 64.3333C37.7028 63.2902 37.7028 62.247 37.7028 61.2039C38.1489 60.6226 38.8622 60.2581 39.5943 60.2236C40.3358 60.2016 41.1118 60.4184 41.6554 60.9431C42.1739 61.4238 42.4252 62.1433 42.4095 62.8409C42.4252 63.5384 42.1644 64.2548 41.6491 64.7355L41.6523 64.7324Z" fill="white"/>
<path d="M63.5301 59.768C62.5435 58.5112 60.8531 57.8765 59.279 58.109C58.6223 58.2127 57.9971 58.5269 57.5383 59.0108C57.532 57.3078 57.5383 55.6048 57.5383 53.9018C56.7622 53.9018 55.9893 53.9018 55.2132 53.9018C55.2132 58.4012 55.2132 62.9006 55.2132 67.3999C55.8259 67.4031 56.4386 67.3999 57.0482 67.4031C57.2084 67.4031 57.4095 67.3937 57.4912 67.2303C57.5635 67.0543 57.5352 66.8564 57.5415 66.6679C58.0787 67.2554 58.8517 67.579 59.6372 67.6356H60.1619C61.4376 67.5665 62.6881 66.9695 63.4956 65.9703C64.1554 65.1723 64.5136 64.1542 64.5701 63.1268V62.5172C64.4979 61.5244 64.1617 60.5409 63.5301 59.7617V59.768ZM61.7172 64.4716C61.1014 65.2634 60.0174 65.5587 59.0559 65.4048C58.4684 65.2885 57.9028 64.9712 57.554 64.4779C57.5163 64.0945 57.5509 63.7081 57.5383 63.3216C57.5477 62.6146 57.5195 61.9046 57.5509 61.1976C57.9028 60.7106 58.4684 60.3995 59.0496 60.2707C60.1242 60.0728 61.3747 60.4969 61.9151 61.4898C62.4084 62.4073 62.3613 63.6358 61.7172 64.4716Z" fill="white"/>
<defs>
<filter id="filter0_i_4123_36" x="0" y="-2" width="80" height="82" filterUnits="userSpaceOnUse" color-interpolation-filters="sRGB">
<feFlood flood-opacity="0" result="BackgroundImageFix"/>
<feBlend mode="normal" in="SourceGraphic" in2="BackgroundImageFix" result="shape"/>
<feColorMatrix in="SourceAlpha" type="matrix" values="0 0 0 0 0 0 0 0 0 0 0 0 0 0 0 0 0 0 127 0" result="hardAlpha"/>
<feOffset dy="-2"/>
<feGaussianBlur stdDeviation="3.15"/>
<feComposite in2="hardAlpha" operator="arithmetic" k2="-1" k3="1"/>
<feColorMatrix type="matrix" values="0 0 0 0 0 0 0 0 0 0 0 0 0 0 0 0 0 0 0.25 0"/>
<feBlend mode="normal" in2="shape" result="effect1_innerShadow_4123_36"/>
</filter>
</defs>
</svg>
