<svg width="58" height="58" viewBox="0 0 58 58" fill="none" xmlns="http://www.w3.org/2000/svg">
<g filter="url(#filter0_i_1_1340)">
<rect width="57.784" height="57.784" rx="9" fill="#0E214B"/>
</g>
<g clip-path="url(#clip0_1_1340)">
<path fill-rule="evenodd" clip-rule="evenodd" d="M15.4257 11.4926C16.2094 11.4796 16.9975 11.4796 17.7812 11.4926C18.038 13.6562 18.5823 15.7723 19.0612 17.897C21.0727 27.156 23.0972 36.4149 25.1044 45.6739C24.6385 45.6739 24.177 45.6739 23.7155 45.6739C21.839 37.0411 19.9537 28.4083 18.0729 19.7756C17.6767 17.9013 17.25 16.0314 16.7319 14.1873C16.4619 13.2243 16.0614 12.2872 15.4301 11.4969L15.4257 11.4926Z" fill="#318EEE"/>
<path fill-rule="evenodd" clip-rule="evenodd" d="M10.6713 11.5012C11.4376 11.471 12.2082 11.4926 12.9745 11.484C13.2575 11.4494 13.4578 11.6783 13.6624 11.8381C14.7204 12.732 15.2298 14.0621 15.6521 15.3361C16.2355 17.1974 16.5664 19.1235 17.0018 21.0237C18.7869 29.2419 20.5894 37.4558 22.3701 45.674C21.9043 45.674 21.4384 45.674 20.9725 45.674C19.0873 37.0325 17.2021 28.3868 15.3125 19.7454C14.9294 18.0007 14.6072 16.2214 13.8496 14.589C13.4142 13.6389 12.7742 12.7536 11.8904 12.1663C11.5116 11.8985 11.0719 11.7344 10.6713 11.5012Z" fill="#76C5F7"/>
<path fill-rule="evenodd" clip-rule="evenodd" d="M44.1569 11.5919C44.379 11.4407 44.6576 11.4882 44.9145 11.4796C46.0073 11.5012 47.1045 11.4537 48.2017 11.5098C47.8751 11.661 47.5312 11.756 47.1916 11.8769C45.5501 12.4556 44.0089 13.3322 42.7245 14.4983C40.652 16.3855 39.1804 18.7995 37.7828 21.1963C37.3213 21.9996 36.8685 22.8072 36.4331 23.6277C36.3591 23.7745 36.2459 23.8998 36.1284 24.0164C36.2024 23.7011 36.3504 23.4118 36.4941 23.1267C37.3605 21.3259 38.2226 19.5251 39.1717 17.7631C39.9249 16.3811 40.7174 15.0122 41.7144 13.7857C42.4023 12.9306 43.2208 12.1706 44.1613 11.5962L44.1569 11.5919ZM19.5314 11.4839H21.5299C21.0161 13.1422 21.2294 14.8999 21.5429 16.5755C23.3106 24.7807 25.0434 32.9903 26.8067 41.1956C26.8546 41.4935 27.0114 41.8218 26.8372 42.1068C26.5673 42.6596 26.306 43.2123 26.0317 43.7608C24.1378 35.1064 22.2657 26.4477 20.3804 17.7976C19.9146 15.7247 19.4443 13.6216 19.5314 11.4839Z" fill="#2474DE"/>
<path fill-rule="evenodd" clip-rule="evenodd" d="M38.9714 11.4839C39.9119 11.4839 40.8523 11.4753 41.7927 11.4926C40.9611 12.7622 40.2689 14.1139 39.6506 15.5002C38.4533 18.1647 37.33 20.8682 36.1893 23.5586C36.1327 23.6882 36.0456 23.8005 35.9629 23.9127C35.9847 23.7573 36.0108 23.6061 36.063 23.4593C36.8424 21.2827 37.6653 19.1148 38.3096 16.8908C38.8147 15.1417 39.1543 13.3107 38.9758 11.4839H38.9714ZM23.3193 11.4839C24.0681 11.4839 24.8126 11.4839 25.5615 11.4839C25.2742 11.8165 24.965 12.1404 24.7735 12.5377C24.3511 13.3755 24.2684 14.3299 24.2858 15.2497C24.325 17.016 24.7604 18.7348 25.1087 20.4536C26.084 25.1306 27.0636 29.8076 28.0389 34.4846C28.274 35.6808 28.57 36.8684 28.7616 38.0733C28.4917 38.7254 28.1608 39.3516 27.8473 39.9864C26.4628 33.4351 25.0782 26.8882 23.6937 20.337C23.2931 18.372 22.7837 16.4157 22.7184 14.4033C22.688 13.4014 22.8839 12.3908 23.3193 11.4796V11.4839Z" fill="#E85F24"/>
<path fill-rule="evenodd" clip-rule="evenodd" d="M34.0342 11.5012C34.9659 11.4623 35.902 11.4969 36.8337 11.4796C37.6087 12.2483 37.9396 13.3452 37.9439 14.4119C37.9526 16.1091 37.539 17.7717 37.121 19.4085C36.7727 20.7343 36.3765 22.0514 35.989 23.3643C35.9499 23.5197 35.8671 23.6623 35.7757 23.7961C35.7975 23.3556 35.9411 22.9324 36.0369 22.5092C36.5028 20.5011 36.9077 18.4584 36.9251 16.3898C36.9034 15.0727 36.7031 13.6389 35.7757 12.624C35.3142 12.0928 34.6568 11.8078 34.0298 11.5055L34.0342 11.5012ZM25.9708 14.1096C26.2059 13.03 26.8677 11.9762 27.9039 11.5098C29.0185 11.471 30.1418 11.471 31.2607 11.5098C30.5728 11.7258 29.8457 11.851 29.2101 12.2095C28.3828 12.624 27.7341 13.3711 27.4685 14.2564C27.0636 15.5822 27.2378 16.9944 27.4772 18.3332C28.5134 23.5932 29.5584 28.8575 30.5902 34.1175C30.6381 34.2859 30.5336 34.4414 30.4683 34.5925C30.2027 35.1237 29.9546 35.6635 29.6803 36.1904C28.5178 30.4381 27.3597 24.6858 26.2015 18.9334C25.8619 17.3528 25.6225 15.6988 25.9708 14.101V14.1096Z" fill="#8EC089"/>
</g>
<defs>
<filter id="filter0_i_1_1340" x="0" y="-2" width="57.784" height="59.784" filterUnits="userSpaceOnUse" color-interpolation-filters="sRGB">
<feFlood flood-opacity="0" result="BackgroundImageFix"/>
<feBlend mode="normal" in="SourceGraphic" in2="BackgroundImageFix" result="shape"/>
<feColorMatrix in="SourceAlpha" type="matrix" values="0 0 0 0 0 0 0 0 0 0 0 0 0 0 0 0 0 0 127 0" result="hardAlpha"/>
<feOffset dy="-2"/>
<feGaussianBlur stdDeviation="3.15"/>
<feComposite in2="hardAlpha" operator="arithmetic" k2="-1" k3="1"/>
<feColorMatrix type="matrix" values="0 0 0 0 0 0 0 0 0 0 0 0 0 0 0 0 0 0 0.25 0"/>
<feBlend mode="normal" in2="shape" result="effect1_innerShadow_1_1340"/>
</filter>
<clipPath id="clip0_1_1340">
<rect width="37.5303" height="34.1943" fill="white" transform="translate(10.6713 11.4796)"/>
</clipPath>
</defs>
</svg>
