<svg width="66" height="66" viewBox="0 0 66 66" fill="none" xmlns="http://www.w3.org/2000/svg">
<g filter="url(#filter0_i_1_1348)">
<rect width="65.6876" height="65.6876" rx="9" fill="#0C3B7C"/>
</g>
<path d="M28.4286 43.8846L22.4416 43.7888L22.3658 37.2205C22.3496 35.8171 22.9346 35.0955 24.2415 34.9485L28.3262 35.0102C31.2391 35.0542 33.143 36.7678 33.1745 39.4954C33.2059 42.223 31.3893 43.9268 28.4286 43.8849L28.4286 43.8846ZM22.2372 26.0776L22.2172 24.3485C22.1998 22.8357 22.889 22.1266 24.4177 22.0566L27.4828 22.1029C30.1094 22.1425 31.7004 23.6081 31.7282 26.0237C31.7494 27.8622 30.6949 29.9932 27.6688 29.9475L22.2812 29.8662L22.2375 26.0773L22.2372 26.0776ZM35.9443 32.8383L34.8556 32.2638L35.7923 31.5365C36.8824 30.6859 38.7024 28.7631 38.6635 25.3982C38.6041 20.2441 34.2096 16.8544 27.4686 16.7526L19.7762 16.6365L19.7762 16.6338L18.8997 16.6205C16.9027 16.6588 15.3191 18.1256 15.3193 19.9692L15.6568 49.2142L27.9973 49.4005C35.4899 49.5137 40.2827 45.8442 40.2158 40.0471C40.1798 36.9256 38.5866 34.2347 35.9443 32.8383Z" fill="white"/>
<path d="M42.421 45.7447C42.3954 43.5295 44.3219 41.7667 46.7208 41.8029C49.1197 41.8392 51.1027 43.661 51.1283 45.8763C51.1539 48.0915 49.2186 49.8542 46.8135 49.8178C44.4084 49.7815 42.4466 47.9573 42.421 45.7447Z" fill="#00BAFC"/>
<defs>
<filter id="filter0_i_1_1348" x="0" y="-2" width="65.6876" height="67.6876" filterUnits="userSpaceOnUse" color-interpolation-filters="sRGB">
<feFlood flood-opacity="0" result="BackgroundImageFix"/>
<feBlend mode="normal" in="SourceGraphic" in2="BackgroundImageFix" result="shape"/>
<feColorMatrix in="SourceAlpha" type="matrix" values="0 0 0 0 0 0 0 0 0 0 0 0 0 0 0 0 0 0 127 0" result="hardAlpha"/>
<feOffset dy="-2"/>
<feGaussianBlur stdDeviation="3.15"/>
<feComposite in2="hardAlpha" operator="arithmetic" k2="-1" k3="1"/>
<feColorMatrix type="matrix" values="0 0 0 0 0 0 0 0 0 0 0 0 0 0 0 0 0 0 0.25 0"/>
<feBlend mode="normal" in2="shape" result="effect1_innerShadow_1_1348"/>
</filter>
</defs>
</svg>
