<svg width="159" height="131" viewBox="0 0 159 131" fill="none" xmlns="http://www.w3.org/2000/svg">
<g clip-path="url(#clip0_4105_336)">
<path d="M70.7048 73.2593C70.2304 72.8878 69.9332 72.3931 69.8133 71.7739H70.8081C70.9134 72.1307 71.1126 72.4185 71.4058 72.6368C71.699 72.8516 72.0402 72.9587 72.428 72.9587C73.0803 72.9587 73.5874 72.6729 73.9499 72.1012C74.3083 71.5336 74.4956 70.725 74.5096 69.6767H74.4929C74.3263 70.0663 74.0451 70.3796 73.6507 70.6159C73.2522 70.8488 72.8024 70.9653 72.3027 70.9653C71.5564 70.9653 70.9347 70.7176 70.4383 70.2229C69.9452 69.7276 69.6993 69.1071 69.6993 68.3607C69.6993 67.6144 69.9619 66.9389 70.4876 66.4329C71.0093 65.9235 71.6723 65.6685 72.4773 65.6685C73.0676 65.6685 73.588 65.8211 74.0371 66.127C74.4862 66.4362 74.8307 66.8733 75.07 67.4376C75.3272 68.0347 75.4558 68.759 75.4558 69.6111C75.4558 70.9399 75.1892 71.9721 74.6568 72.707C74.1244 73.446 73.3775 73.8155 72.4173 73.8155C71.7503 73.8155 71.1799 73.6301 70.7048 73.2586V73.2593ZM73.7646 69.6064C74.1091 69.2751 74.281 68.8581 74.281 68.356C74.281 67.854 74.1091 67.4243 73.7646 67.0782C73.4168 66.7288 72.991 66.5541 72.4873 66.5541C71.9835 66.5541 71.5577 66.7268 71.2099 67.0728C70.8621 67.4149 70.6882 67.8339 70.6882 68.3286C70.6882 68.8233 70.8567 69.2657 71.1939 69.6011C71.5311 69.9358 71.9569 70.1031 72.4713 70.1031C72.9857 70.1031 73.4208 69.9378 73.7653 69.6064H73.7646Z" fill="black"/>
<path d="M91.4117 66.8471H91.3897L89.3134 68.3485V67.311L91.4004 65.8042H92.3572V73.6835H91.4117V66.8471Z" fill="black"/>
<path d="M94.9612 72.7114C94.4541 71.9872 94.2003 70.9971 94.2003 69.7407C94.2003 68.4843 94.4541 67.509 94.9612 66.7814C95.4796 66.0424 96.1899 65.6729 97.0921 65.6729C97.9943 65.6729 98.7026 66.0403 99.2177 66.776C99.7215 67.5003 99.9733 68.4869 99.9733 69.7353C99.9733 70.9838 99.7215 71.9811 99.2177 72.7061C98.7066 73.4451 97.9983 73.8146 97.0921 73.8146C96.1859 73.8146 95.4723 73.4471 94.9612 72.7114ZM98.5001 72.0829C98.8266 71.5186 98.9892 70.7381 98.9892 69.7407C98.9892 68.7433 98.8246 67.9809 98.4948 67.4092C98.1576 66.8269 97.6905 66.5357 97.0921 66.5357C96.4938 66.5357 96.0247 66.8289 95.6842 67.4146C95.351 67.9862 95.1844 68.7594 95.1844 69.7353C95.1844 70.7113 95.349 71.5152 95.6788 72.0835C96.016 72.6659 96.4871 72.9571 97.0921 72.9571C97.6972 72.9571 98.1662 72.6659 98.5001 72.0835V72.0829Z" fill="black"/>
<path opacity="0.26" d="M116.878 62.9282H51.3673V76.6238H116.878V62.9282Z" fill="#ED3C6A"/>
<path d="M46.6843 62.8633H54.3365C55.987 62.8633 57.3269 64.2094 57.3269 65.8675V73.5547C57.3269 75.2128 55.987 76.5589 54.3365 76.5589H46.6843C45.0338 76.5589 43.6938 75.2128 43.6938 73.5547V65.8675C43.6938 64.2094 45.0338 62.8633 46.6843 62.8633Z" fill="#ED3C6A"/>
<path d="M113.052 62.8633H120.704C122.355 62.8633 123.695 64.2094 123.695 65.8675V73.5547C123.695 75.2128 122.355 76.5589 120.704 76.5589H113.052C111.402 76.5589 110.062 75.2128 110.062 73.5547V65.8675C110.062 64.2094 111.402 62.8633 113.052 62.8633Z" fill="#ED3C6A"/>
<g opacity="0.39">
<path d="M1.9377 49.379H2.87789C3.327 49.379 3.69481 49.2478 3.98133 48.9861C4.26785 48.7277 4.41045 48.3983 4.41045 47.9981C4.41045 47.5978 4.28185 47.2811 4.02464 47.0482C3.75278 46.8079 3.37431 46.6881 2.88855 46.6881C2.43945 46.6881 2.07297 46.8079 1.79044 47.0482C1.50792 47.2885 1.34467 47.6158 1.30136 48.0309H0.361167C0.415806 47.3608 0.673009 46.828 1.13278 46.431C1.59654 46.0341 2.19624 45.8359 2.93186 45.8359C3.66749 45.8359 4.22388 46.0274 4.68764 46.4096C5.15873 46.7918 5.39462 47.2778 5.39462 47.8675C5.39462 48.3589 5.24936 48.7719 4.9595 49.1072C4.66965 49.4419 4.27851 49.6534 3.78543 49.7405V49.7626C4.3798 49.7987 4.85289 49.9881 5.20405 50.3302C5.5552 50.6763 5.73111 51.1254 5.73111 51.679C5.73111 52.3491 5.46325 52.9006 4.92685 53.3337C4.39779 53.7635 3.74345 53.9783 2.96451 53.9783C2.18558 53.9783 1.49726 53.7728 0.996845 53.3612C0.503761 52.9569 0.239229 52.424 0.203247 51.7613H1.14344C1.18675 52.173 1.36799 52.5003 1.68716 52.744C2.013 52.999 2.43545 53.1262 2.95385 53.1262C3.47226 53.1262 3.89937 52.993 4.23654 52.7279C4.5697 52.4622 4.73628 52.1235 4.73628 51.7125C4.73628 51.2499 4.57303 50.8844 4.2472 50.6147C3.92469 50.3456 3.48292 50.2104 2.9212 50.2104H1.9377V49.3803V49.379Z" fill="black"/>
<path d="M7.54153 52.8735C7.03445 52.1493 6.78058 51.1593 6.78058 49.9028C6.78058 48.6464 7.03445 47.6711 7.54153 46.9435C8.05993 46.2045 8.77024 45.835 9.67245 45.835C10.5747 45.835 11.283 46.2025 11.7974 46.9381C12.3011 47.6624 12.553 48.6491 12.553 49.8975C12.553 51.1459 12.3011 52.1432 11.7974 52.8682C11.2863 53.6072 10.578 53.9767 9.67245 53.9767C8.76691 53.9767 8.0526 53.6092 7.54153 52.8735ZM11.0797 52.2457C11.4056 51.6814 11.5688 50.9009 11.5688 49.9035C11.5688 48.9061 11.4042 48.1437 11.0744 47.572C10.7372 46.9897 10.2701 46.6985 9.67178 46.6985C9.07342 46.6985 8.60432 46.9917 8.26383 47.5774C7.93066 48.149 7.76408 48.9222 7.76408 49.8981C7.76408 50.8741 7.92866 51.678 8.2585 52.2463C8.59566 52.8287 9.06675 53.1199 9.67178 53.1199C10.2768 53.1199 10.7459 52.8287 11.0797 52.2463V52.2457Z" fill="black"/>
</g>
<g opacity="0.39">
<path d="M25.3438 49.3785H26.284C26.7331 49.3785 27.1009 49.2473 27.3875 48.9856C27.674 48.7272 27.8166 48.3979 27.8166 47.9976C27.8166 47.5973 27.688 47.2807 27.4308 47.0477C27.1589 46.8074 26.7804 46.6876 26.2947 46.6876C25.8456 46.6876 25.4791 46.8074 25.1966 47.0477C24.914 47.288 24.7508 47.6153 24.7075 48.0304H23.7673C23.8219 47.3603 24.0791 46.8275 24.5389 46.4305C25.0027 46.0336 25.6024 45.8354 26.338 45.8354C27.0736 45.8354 27.63 46.0269 28.0938 46.4091C28.5649 46.7913 28.8001 47.2773 28.8001 47.867C28.8001 48.3584 28.6548 48.7714 28.365 49.1067C28.0751 49.4414 27.684 49.653 27.1909 49.74V49.7621C27.7853 49.7982 28.2577 49.9876 28.6095 50.3297C28.9613 50.6758 29.1366 51.1249 29.1366 51.6785C29.1366 52.3486 28.8687 52.9001 28.3323 53.3332C27.8032 53.763 27.1489 53.9779 26.37 53.9779C25.591 53.9779 24.902 53.7723 24.4023 53.3607C23.9092 52.9564 23.6447 52.4235 23.6087 51.7608H24.5489C24.5922 52.1725 24.7734 52.4998 25.0926 52.7435C25.4185 52.9985 25.8409 53.1257 26.3593 53.1257C26.8777 53.1257 27.3048 52.9925 27.642 52.7274C27.9752 52.4617 28.1417 52.123 28.1417 51.712C28.1417 51.2494 27.9785 50.884 27.6527 50.6142C27.3302 50.3451 26.8877 50.2099 26.3267 50.2099H25.3432V49.3798L25.3438 49.3785Z" fill="black"/>
<path d="M32.3336 47.0087H32.3116L30.2354 48.5102V47.4726L32.3223 45.9658H33.2791V53.8452H32.3336V47.0087Z" fill="black"/>
</g>
<path d="M51.0868 47.0087H51.0648L48.9885 48.5102V47.4726L51.0755 45.9658H52.0323V53.8452H51.0868V47.0087Z" fill="black"/>
<path d="M6.98113 35.2193H5.75175V30.7484H5.7151L3.92401 35.155H3.05578L1.26469 30.7484H1.22804V35.2193H0V28.5957H1.59919L3.47224 33.2914H3.50889L5.38194 28.5957H6.98113V35.2193Z" fill="black"/>
<path d="M8.46173 34.6088C8.01729 34.1436 7.79474 33.5043 7.79474 32.6904C7.79474 31.8764 8.01862 31.2478 8.4664 30.7766C8.91417 30.3114 9.5172 30.0791 10.2755 30.0791C11.0338 30.0791 11.6401 30.3114 12.0846 30.7766C12.5323 31.2445 12.7562 31.8824 12.7562 32.6904C12.7562 33.4983 12.5337 34.1483 12.0892 34.6135C11.6475 35.0754 11.0431 35.3063 10.2755 35.3063C9.50787 35.3063 8.90618 35.0741 8.46173 34.6088ZM11.1024 33.8605C11.3003 33.582 11.3996 33.1917 11.3996 32.6897C11.3996 32.1877 11.299 31.8054 11.0977 31.5236C10.8998 31.2452 10.6253 31.1059 10.2755 31.1059C9.92566 31.1059 9.64647 31.2452 9.44857 31.5236C9.24734 31.8054 9.14672 32.1937 9.14672 32.6897C9.14672 33.1857 9.24734 33.582 9.44857 33.8605C9.64647 34.1356 9.92233 34.2735 10.2755 34.2735C10.6286 34.2735 10.9045 34.1356 11.1024 33.8605Z" fill="black"/>
<path d="M25.2506 35.2196V29.7393H23.3222V28.5967H28.5629V29.7393H26.6299V35.2196H25.2499H25.2506Z" fill="black"/>
<path d="M33.5664 35.2197H32.2777V34.3067H32.2504C31.9852 34.9647 31.4581 35.2933 30.6692 35.2933C30.1181 35.2933 29.6777 35.1253 29.3485 34.7886C29.0107 34.4492 28.8414 33.9887 28.8414 33.407V30.1665H30.1754V33.1272C30.1754 33.4639 30.2654 33.7236 30.4453 33.9077C30.6192 34.0884 30.8624 34.1788 31.1762 34.1788C31.4901 34.1788 31.7446 34.075 31.9392 33.8669C32.1344 33.6587 32.2317 33.3849 32.2317 33.0455V30.1678H33.5657V35.221L33.5664 35.2197Z" fill="black"/>
<path d="M46.8189 35.2193H45.5169L43.7718 28.5957H45.2017L46.2392 33.3925H46.2759L47.5092 28.5957H48.6746L49.908 33.3925H49.9447L50.9861 28.5957H52.4161L50.6663 35.2193H49.3643L48.1123 30.6936H48.0709L46.8189 35.2193Z" fill="black"/>
<path d="M57.209 33.6772C57.1357 34.1665 56.8905 34.5601 56.4733 34.8567C56.0562 35.1566 55.5411 35.3065 54.9288 35.3065C54.1645 35.3065 53.5615 35.0756 53.1197 34.6137C52.6813 34.1518 52.462 33.5179 52.462 32.7133C52.462 31.9087 52.6799 31.2688 53.1157 30.7949C53.5541 30.3176 54.1418 30.0786 54.8795 30.0786C55.6171 30.0786 56.1802 30.3049 56.6066 30.758C57.0364 31.2112 57.2509 31.8217 57.2509 32.5895V33.0025H53.7787V33.0848C53.7787 33.449 53.8866 33.7442 54.1032 33.9704C54.3198 34.194 54.603 34.3058 54.9528 34.3058C55.2053 34.3058 55.4232 34.2489 55.6064 34.1358C55.7923 34.0253 55.917 33.8727 55.9809 33.6766H57.2103L57.209 33.6772ZM54.1292 31.3826C53.928 31.5847 53.8154 31.8478 53.7914 32.1718H55.9616C55.9496 31.8411 55.8457 31.5767 55.6511 31.3779C55.4559 31.1791 55.2033 31.0793 54.8928 31.0793C54.5823 31.0793 54.3338 31.1804 54.1299 31.3826H54.1292Z" fill="black"/>
<path d="M69.3835 35.2196V29.7393H67.4551V28.5967H72.6958V29.7393H70.7635V35.2196H69.3835Z" fill="black"/>
<path d="M72.9744 30.1664H74.263V31.0707H74.2904C74.5855 30.4188 75.1246 30.0928 75.9075 30.0928C76.4653 30.0928 76.9037 30.2595 77.2235 30.5928C77.54 30.9262 77.6986 31.3887 77.6986 31.9791V35.2196H76.3646V32.2589C76.3646 31.9222 76.2794 31.6638 76.1088 31.4831C75.9349 31.2997 75.6917 31.208 75.3778 31.208C75.064 31.208 74.8008 31.3117 74.6055 31.5199C74.4076 31.7281 74.3083 32.0005 74.3083 32.3372V35.2196H72.9744V30.1664Z" fill="black"/>
<path d="M90.682 35.2193V28.5957H94.9998V29.7383H92.062V31.5149H94.7439V32.612H92.062V35.2193H90.682Z" fill="black"/>
<path d="M95.7168 30.166H97.0055V31.0704H97.0328C97.2067 30.4278 97.6052 30.1064 98.2295 30.1064C98.3788 30.1064 98.5034 30.1232 98.604 30.1566V31.3455C98.4854 31.2906 98.3255 31.2631 98.1242 31.2631C97.7864 31.2631 97.5225 31.3629 97.334 31.5617C97.1454 31.7605 97.0508 32.0376 97.0508 32.3924V35.2199H95.7168V30.1667V30.166Z" fill="black"/>
<path d="M112.837 33.3331C112.868 33.6022 113.011 33.8211 113.267 33.9898C113.52 34.1552 113.831 34.2375 114.199 34.2375C114.568 34.2375 114.864 34.1578 115.095 33.9985C115.324 33.8426 115.437 33.6417 115.437 33.3974C115.437 33.1832 115.352 33.0105 115.182 32.8786C115.011 32.7468 114.726 32.637 114.327 32.548L113.468 32.3599C112.259 32.0995 111.655 31.483 111.655 30.5104C111.655 29.9046 111.891 29.4132 112.363 29.037C112.832 28.6669 113.436 28.4814 114.177 28.4814C114.917 28.4814 115.547 28.6635 116.005 29.0277C116.456 29.3885 116.687 29.8704 116.699 30.4735H115.406C115.385 30.1951 115.262 29.9748 115.036 29.8129C114.814 29.6535 114.529 29.5746 114.182 29.5746C113.835 29.5746 113.567 29.6495 113.36 29.7995C113.15 29.9494 113.045 30.1469 113.045 30.3912C113.045 30.5934 113.13 30.7587 113.301 30.8872C113.468 31.0097 113.742 31.1155 114.123 31.2038L114.922 31.3739C115.583 31.5144 116.064 31.7347 116.366 32.0345C116.668 32.3311 116.819 32.732 116.819 33.2374C116.819 33.88 116.578 34.3894 116.097 34.7656C115.616 35.1452 114.966 35.3346 114.146 35.3346C113.327 35.3346 112.719 35.1572 112.25 34.8024C111.777 34.4443 111.531 33.955 111.509 33.3338H112.839L112.837 33.3331Z" fill="black"/>
<path d="M117.845 34.8614C117.522 34.5769 117.36 34.2114 117.36 33.7642C117.36 33.3171 117.531 32.9503 117.872 32.6899C118.207 32.4362 118.698 32.2889 119.343 32.2494L120.6 32.1711V31.8364C120.6 31.5948 120.522 31.408 120.367 31.2761C120.212 31.1476 119.995 31.0834 119.718 31.0834C119.48 31.0834 119.281 31.1416 119.12 31.2581C118.961 31.3712 118.865 31.5211 118.832 31.7079H117.612C117.63 31.2246 117.837 30.833 118.233 30.5331C118.632 30.2299 119.146 30.0786 119.773 30.0786C120.401 30.0786 120.937 30.2319 121.326 30.5378C121.716 30.8437 121.911 31.2494 121.911 31.7541V35.2195H120.623V34.439H120.595C120.462 34.6994 120.251 34.9055 119.965 35.0588C119.688 35.2054 119.385 35.2791 119.056 35.2791C118.565 35.2791 118.161 35.1398 117.845 34.8614ZM120.276 34.04C120.492 33.8626 120.6 33.6377 120.6 33.3653V32.9938L119.545 33.0674C118.975 33.1042 118.69 33.3138 118.69 33.696C118.69 33.8827 118.764 34.0293 118.91 34.1364C119.053 34.2469 119.246 34.3018 119.49 34.3018C119.804 34.3018 120.066 34.2147 120.276 34.04Z" fill="black"/>
<path d="M134.726 33.3331C134.756 33.6022 134.9 33.8211 135.155 33.9898C135.408 34.1552 135.719 34.2375 136.088 34.2375C136.456 34.2375 136.751 34.1578 136.983 33.9985C137.212 33.8426 137.326 33.6417 137.326 33.3974C137.326 33.1832 137.24 33.0105 137.07 32.8786C136.899 32.7468 136.615 32.637 136.216 32.548L135.357 32.3599C134.147 32.0995 133.543 31.483 133.543 30.5104C133.543 29.9046 133.779 29.4132 134.251 29.037C134.72 28.6669 135.325 28.4814 136.065 28.4814C136.805 28.4814 137.436 28.6635 137.893 29.0277C138.344 29.3885 138.575 29.8704 138.587 30.4735H137.294C137.272 30.1951 137.149 29.9748 136.924 29.8129C136.701 29.6535 136.417 29.5746 136.07 29.5746C135.723 29.5746 135.455 29.6495 135.247 29.7995C135.038 29.9494 134.932 30.1469 134.932 30.3912C134.932 30.5934 135.018 30.7587 135.188 30.8872C135.355 31.0097 135.63 31.1155 136.01 31.2038L136.81 31.3739C137.471 31.5144 137.952 31.7347 138.254 32.0345C138.556 32.3311 138.706 32.732 138.706 33.2374C138.706 33.88 138.466 34.3894 137.985 34.7656C137.504 35.1452 136.853 35.3346 136.034 35.3346C135.214 35.3346 134.606 35.1572 134.137 34.8024C133.665 34.4443 133.418 33.955 133.397 33.3338H134.726L134.726 33.3331Z" fill="black"/>
<path d="M144.156 35.2197H142.867V34.3067H142.84C142.574 34.9647 142.047 35.2933 141.258 35.2933C140.707 35.2933 140.267 35.1253 139.938 34.7886C139.6 34.4492 139.431 33.9887 139.431 33.407V30.1665H140.765V33.1272C140.765 33.4639 140.855 33.7236 141.035 33.9077C141.208 34.0884 141.452 34.1788 141.765 34.1788C142.079 34.1788 142.334 34.075 142.528 33.8669C142.724 33.6587 142.821 33.3849 142.821 33.0455V30.1678H144.155V35.221L144.156 35.2197Z" fill="black"/>
<path d="M69.9652 48.303C69.9652 47.6149 70.2117 47.0419 70.7042 46.5827C71.1972 46.1275 71.8129 45.8999 72.5519 45.8999C73.2515 45.8999 73.8439 46.1094 74.329 46.5278C74.8147 46.9462 75.0573 47.4576 75.0573 48.062C75.0573 48.4991 74.936 48.9208 74.6928 49.3292C74.4569 49.7295 74.0098 50.2723 73.3502 50.9564L71.3665 53.0148V53.0369H75.1879V53.9104H70.0132V53.2337L72.7745 50.3125C73.3002 49.7556 73.6493 49.3332 73.8233 49.046C73.9938 48.7582 74.0785 48.4509 74.0785 48.1229C74.0785 47.7441 73.9279 47.4221 73.6273 47.1563C73.3228 46.8906 72.955 46.7581 72.5239 46.7581C72.0635 46.7581 71.6797 46.9053 71.3718 47.2005C71.064 47.4957 70.9101 47.8632 70.9101 48.3037V48.309H69.9645V48.3037L69.9652 48.303Z" fill="black"/>
<path d="M93.6132 49.3785H94.5534C95.0025 49.3785 95.3703 49.2473 95.6569 48.9856C95.9434 48.7272 96.086 48.3979 96.086 47.9976C96.086 47.5973 95.9574 47.2807 95.7002 47.0477C95.4283 46.8074 95.0498 46.6876 94.5641 46.6876C94.115 46.6876 93.7485 46.8074 93.466 47.0477C93.1835 47.288 93.0202 47.6153 92.9769 48.0304H92.0367C92.0913 47.3603 92.3485 46.8275 92.8083 46.4305C93.2721 46.0336 93.8718 45.8354 94.6074 45.8354C95.343 45.8354 95.8994 46.0269 96.3632 46.4091C96.8343 46.7913 97.0702 47.2773 97.0702 47.867C97.0702 48.3584 96.9249 48.7714 96.635 49.1067C96.3452 49.4414 95.9541 49.653 95.461 49.74V49.7621C96.0553 49.7982 96.5284 49.9876 96.8796 50.3297C97.2307 50.6758 97.4066 51.1249 97.4066 51.6785C97.4066 52.3486 97.1388 52.9001 96.6024 53.3332C96.0733 53.763 95.419 53.9779 94.64 53.9779C93.8611 53.9779 93.1728 53.7723 92.6724 53.3607C92.1793 52.9564 91.9148 52.4235 91.8788 51.7608H92.819C92.8623 52.1725 93.0435 52.4998 93.3627 52.7435C93.6892 52.9985 94.111 53.1257 94.6294 53.1257C95.1478 53.1257 95.5749 52.9925 95.9121 52.7274C96.2452 52.4617 96.4118 52.123 96.4118 51.712C96.4118 51.2494 96.2486 50.884 95.9227 50.6142C95.6002 50.3451 95.1585 50.2099 94.5967 50.2099H93.6132V49.3798V49.3785Z" fill="black"/>
<path d="M117.652 52.2072H113.712V51.3169C114.335 50.1555 115.482 48.3716 117.153 45.9658H118.599V51.3443H119.707V52.2072H118.599V53.8452H117.653V52.2072H117.652ZM114.679 51.3443H117.652V46.7851H117.636C116.263 48.7545 115.278 50.2673 114.679 51.3229V51.345V51.3443Z" fill="black"/>
<path d="M136.849 53.2715C136.346 52.8458 136.074 52.2975 136.034 51.6281H136.996C137.039 52.0465 137.222 52.3892 137.545 52.655C137.867 52.9174 138.264 53.0479 138.735 53.0479C139.267 53.0479 139.702 52.8806 140.04 52.5459C140.373 52.2112 140.539 51.7781 140.539 51.2466C140.539 50.7151 140.373 50.28 140.04 49.9413C139.702 49.5992 139.273 49.4279 138.752 49.4279C137.976 49.4279 137.416 49.7231 137.072 50.3128H136.153L136.582 45.9009H141.072V46.7744H137.386L137.147 49.3409H137.169C137.546 48.8348 138.131 48.5818 138.925 48.5818C139.718 48.5818 140.298 48.8294 140.784 49.3241C141.273 49.8228 141.518 50.4547 141.518 51.2191C141.518 51.9836 141.256 52.655 140.735 53.1577C140.213 53.6597 139.543 53.9114 138.724 53.9114C137.973 53.9114 137.348 53.6985 136.849 53.2728L136.849 53.2715Z" fill="black"/>
<path d="M4.92419 73.3554C4.47508 73.0495 4.12859 72.613 3.88605 72.0447C3.62885 71.4476 3.50024 70.7254 3.50024 69.8772C3.50024 68.5485 3.76811 67.515 4.3045 66.776C4.8369 66.037 5.58385 65.6675 6.54403 65.6675C7.21103 65.6675 7.77941 65.8529 8.2505 66.2244C8.7216 66.5959 9.02078 67.0906 9.14738 67.7098H8.15255C8.04727 67.353 7.84804 67.0672 7.55486 66.8523C7.26167 66.6414 6.92051 66.5357 6.53271 66.5357C5.87704 66.5357 5.3693 66.8175 5.01081 67.3818C4.65233 67.9461 4.46376 68.752 4.44577 69.8009H4.46242C4.63967 69.4154 4.92819 69.1054 5.32665 68.8725C5.72512 68.6396 6.16756 68.5231 6.65265 68.5231C7.39893 68.5231 8.02062 68.7707 8.51703 69.2654C9.01012 69.7608 9.25599 70.3813 9.25599 71.1277C9.25599 71.874 8.99479 72.5494 8.47306 73.0555C7.94732 73.5649 7.28299 73.8199 6.47807 73.8199C5.89103 73.8199 5.37263 73.6653 4.92352 73.356L4.92419 73.3554ZM7.7401 72.4269C8.08792 72.0809 8.26183 71.6591 8.26183 71.1604C8.26183 70.6618 8.09525 70.2193 7.76208 69.888C7.42892 69.5533 7.00314 69.3859 6.48473 69.3859C5.96633 69.3859 5.53521 69.5513 5.19072 69.8826C4.85023 70.2139 4.67965 70.631 4.67965 71.133C4.67965 71.635 4.85156 72.0668 5.19605 72.4162C5.54388 72.769 5.96766 72.9457 6.46807 72.9457C6.96849 72.9457 7.39227 72.773 7.7401 72.4269Z" fill="black"/>
<path d="M30.0727 66.6989V66.6768H25.8495V65.8032H31.0403V66.7149L27.5507 73.6826H26.5232L30.0727 66.6989Z" fill="black"/>
<path d="M48.4641 73.1753C47.9317 72.7529 47.6652 72.2127 47.6652 71.5534C47.6652 71.0621 47.8191 70.6303 48.1269 70.2595C48.4348 69.888 48.8426 69.6443 49.3496 69.5278V69.5057C48.9259 69.3745 48.5907 69.151 48.3442 68.8344C48.0976 68.5211 47.9743 68.1576 47.9743 67.7426C47.9743 67.1495 48.2155 66.6562 48.6973 66.2626C49.1757 65.8697 49.7788 65.6729 50.5071 65.6729C51.2353 65.6729 51.8444 65.8676 52.3228 66.2572C52.7972 66.6502 53.0351 67.1475 53.0351 67.7479C53.0351 68.1596 52.9138 68.5197 52.6713 68.829C52.4287 69.1456 52.0936 69.3712 51.6658 69.5057V69.5278C52.1729 69.6477 52.5827 69.894 52.8945 70.2648C53.2024 70.6363 53.3563 71.0654 53.3563 71.5534C53.3563 72.2121 53.0897 72.7549 52.5573 73.1807C52.0249 73.6031 51.3413 73.8139 50.5084 73.8139C49.6755 73.8139 48.9972 73.6011 48.4648 73.1753H48.4641ZM51.8397 72.5421C52.1842 72.2656 52.3561 71.9122 52.3561 71.4824C52.3561 71.0527 52.1842 70.6946 51.8397 70.4174C51.4919 70.141 51.0481 70.0024 50.5077 70.0024C49.9673 70.0024 49.5255 70.141 49.1817 70.4174C48.8339 70.6979 48.66 71.0527 48.66 71.4824C48.66 71.9122 48.8339 72.265 49.1817 72.5421C49.5295 72.8185 49.9713 72.9571 50.5077 72.9571C51.0441 72.9571 51.4912 72.8185 51.8397 72.5421ZM51.6331 68.7741C51.923 68.5305 52.0683 68.2172 52.0683 67.835C52.0683 67.4527 51.9237 67.1321 51.6331 66.8851C51.3433 66.6415 50.9682 66.519 50.5077 66.519C50.0473 66.519 49.6728 66.6428 49.3823 66.8905C49.0924 67.1341 48.9472 67.4494 48.9472 67.835C48.9472 68.2205 49.0918 68.5305 49.3823 68.7741C49.6721 69.0178 50.0473 69.1403 50.5077 69.1403C50.9682 69.1403 51.3393 69.0184 51.6331 68.7741Z" fill="white"/>
<path d="M114.818 66.8466H114.796L112.72 68.348V67.3105L114.806 65.8037H115.763V73.683H114.818V66.8466Z" fill="white"/>
<path d="M119.753 66.8466H119.731L117.655 68.348V67.3105L119.742 65.8037H120.699V73.683H119.753V66.8466Z" fill="white"/>
<path d="M135.77 66.9125H135.748L133.672 68.414V67.3764L135.759 65.8696H136.715V73.749H135.77V66.9125Z" fill="black"/>
<path d="M138.656 68.1409C138.656 67.4528 138.903 66.8798 139.395 66.4206C139.888 65.9654 140.504 65.7378 141.244 65.7378C141.943 65.7378 142.536 65.9473 143.021 66.3657C143.507 66.784 143.749 67.2955 143.749 67.8999C143.749 68.337 143.628 68.7587 143.385 69.1671C143.149 69.5673 142.702 70.1095 142.043 70.7943L140.059 72.8527V72.8748H143.88V73.7483H138.706V73.0709L141.467 70.1497C141.993 69.5928 142.342 69.1704 142.516 68.8826C142.686 68.5947 142.771 68.2875 142.771 67.9595C142.771 67.5806 142.62 67.2586 142.32 66.9929C142.015 66.7271 141.648 66.5946 141.216 66.5946C140.756 66.5946 140.372 66.7419 140.064 67.0371C139.756 67.3323 139.603 67.6998 139.603 68.1402V68.1456H138.657V68.1402L138.656 68.1409Z" fill="black"/>
<path d="M3.26367 86.684H3.24169L1.16541 88.1854V87.1479L3.25235 85.6411H4.2092V93.5204H3.26367V86.684Z" fill="black"/>
<path d="M7.7967 89.0543H8.73689C9.186 89.0543 9.55381 88.9231 9.84034 88.6614C10.1269 88.403 10.2695 88.0736 10.2695 87.6733C10.2695 87.2731 10.1408 86.9564 9.88365 86.7235C9.61178 86.4832 9.23331 86.3634 8.74756 86.3634C8.29845 86.3634 7.93197 86.4832 7.64945 86.7235C7.36692 86.9638 7.20367 87.2911 7.16036 87.7061H6.22017C6.27481 87.0361 6.53201 86.5033 6.99178 86.1063C7.45554 85.7094 8.05524 85.5112 8.79087 85.5112C9.52649 85.5112 10.0829 85.7027 10.5466 86.0842C11.0177 86.4664 11.253 86.9524 11.253 87.5422C11.253 88.0335 11.1084 88.4465 10.8178 88.7818C10.528 89.1165 10.1369 89.3281 9.64377 89.4151V89.4372C10.2381 89.4733 10.7112 89.6628 11.0624 90.0048C11.4142 90.3509 11.5894 90.8 11.5894 91.3536C11.5894 92.0237 11.3216 92.5753 10.7852 93.0083C10.2561 93.4381 9.60179 93.653 8.82285 93.653C8.04391 93.653 7.35493 93.4475 6.85518 93.0358C6.3621 92.6315 6.09757 92.0987 6.06158 91.436H7.00177C7.04509 91.8476 7.22633 92.175 7.5455 92.4186C7.87133 92.6737 8.29379 92.8008 8.81219 92.8008C9.33059 92.8008 9.75771 92.6683 10.0949 92.4026C10.428 92.1368 10.5946 91.7981 10.5946 91.3871C10.5946 90.9245 10.4314 90.5591 10.1055 90.2893C9.78303 90.0202 9.34059 89.885 8.77954 89.885H7.79537V89.055L7.7967 89.0543Z" fill="black"/>
<path d="M25.1346 86.684H25.1126L23.0363 88.1854V87.1479L25.1233 85.6411H26.0801V93.5204H25.1346V86.684Z" fill="black"/>
<path d="M31.7985 91.8825H27.8578V90.9922C28.4809 89.8308 29.6283 88.0469 31.2988 85.6411H32.7447V91.0196H33.8535V91.8825H32.7447V93.5204H31.7992V91.8825H31.7985ZM28.8254 91.0196H31.7985V86.4604H31.7825C30.4092 88.4298 29.4237 89.9426 28.8254 90.9982V91.0203V91.0196Z" fill="black"/>
<path d="M47.3474 86.6186H47.3254L45.2491 88.12V87.0825L47.336 85.5757H48.2929V93.455H47.3474V86.6186Z" fill="black"/>
<path d="M51.1034 92.9476C50.5997 92.5219 50.3278 91.9737 50.2878 91.3043H51.25C51.2933 91.7226 51.4766 92.0654 51.7991 92.3311C52.1216 92.5935 52.5187 92.724 52.9891 92.724C53.5215 92.724 53.9566 92.5567 54.2938 92.222C54.627 91.8873 54.7936 91.4536 54.7936 90.9221C54.7936 90.3906 54.627 89.9555 54.2938 89.6168C53.9566 89.2747 53.5275 89.1033 53.0058 89.1033C52.2302 89.1033 51.6705 89.3979 51.326 89.9876H50.4071L50.8362 85.5757H55.326V86.4492H51.6405L51.4013 89.0157H51.4233C51.8004 88.5096 52.3854 88.2566 53.179 88.2566C53.9726 88.2566 54.5523 88.5042 55.0381 88.9989C55.5272 89.4976 55.7717 90.1295 55.7717 90.8939C55.7717 91.6584 55.5112 92.3298 54.9888 92.8325C54.4671 93.3345 53.7967 93.5862 52.9778 93.5862C52.2275 93.5862 51.6025 93.3734 51.1028 92.9476H51.1034Z" fill="black"/>
<path d="M69.3508 86.684H69.3288L67.2526 88.1854V87.1479L69.3395 85.6411H70.2964V93.5204H69.3508V86.684Z" fill="black"/>
<path d="M73.5694 93.193C73.1203 92.887 72.7738 92.4506 72.5313 91.8823C72.2741 91.2852 72.1454 90.5629 72.1454 89.7142C72.1454 88.3854 72.4133 87.3519 72.9497 86.6129C73.4821 85.8739 74.2291 85.5044 75.1892 85.5044C75.8562 85.5044 76.4246 85.6898 76.8957 86.0613C77.3668 86.4328 77.666 86.9275 77.7926 87.5467H76.7978C76.6925 87.1899 76.4932 86.9041 76.2001 86.6892C75.9069 86.4784 75.5657 86.3726 75.1779 86.3726C74.5222 86.3726 74.0145 86.6544 73.656 87.2187C73.2975 87.783 73.109 88.5889 73.091 89.6378H73.1076C73.2849 89.2523 73.5734 88.9424 73.9719 88.7094C74.3703 88.4765 74.8128 88.36 75.2979 88.36C76.0441 88.36 76.6658 88.6077 77.1622 89.1023C77.6553 89.5977 77.9012 90.2182 77.9012 90.9646C77.9012 91.7109 77.64 92.3863 77.1183 92.8924C76.5925 93.4018 75.9282 93.6568 75.1233 93.6568C74.5362 93.6568 74.0178 93.5022 73.5687 93.193H73.5694ZM76.3846 92.2645C76.7325 91.9184 76.9064 91.4961 76.9064 90.9974C76.9064 90.4987 76.7398 90.0562 76.4066 89.7249C76.0735 89.3902 75.6477 89.2228 75.1293 89.2228C74.6109 89.2228 74.1797 89.3882 73.8353 89.7195C73.4948 90.0509 73.3242 90.4679 73.3242 90.9699C73.3242 91.472 73.4961 91.9037 73.8406 92.2531C74.1884 92.6066 74.6122 92.7826 75.1126 92.7826C75.613 92.7826 76.0368 92.6099 76.3846 92.2638V92.2645Z" fill="black"/>
<path d="M91.7409 86.684H91.7189L89.6426 88.1854V87.1479L91.7295 85.6411H92.6864V93.5204H91.7409V86.684Z" fill="black"/>
<path d="M98.6767 86.5368V86.5147H94.4535V85.6411H99.6442V86.5528L96.1546 93.5204H95.1271L98.6767 86.5368Z" fill="black"/>
<path d="M113.519 86.684H113.497L111.421 88.1854V87.1479L113.508 85.6411H114.465V93.5204H113.519V86.684Z" fill="black"/>
<path d="M117.107 93.0132C116.574 92.5908 116.308 92.0506 116.308 91.3913C116.308 90.9 116.462 90.4682 116.769 90.0974C117.077 89.7259 117.485 89.4822 117.992 89.3657V89.3436C117.568 89.2124 117.233 88.9889 116.987 88.6723C116.74 88.359 116.617 87.9948 116.617 87.5805C116.617 86.9874 116.858 86.4941 117.34 86.1005C117.818 85.7075 118.421 85.5107 119.15 85.5107C119.878 85.5107 120.487 85.7055 120.965 86.0951C121.44 86.4881 121.678 86.9854 121.678 87.5858C121.678 87.9975 121.556 88.3576 121.313 88.6669C121.071 88.9835 120.735 89.2091 120.308 89.3436V89.3657C120.815 89.4856 121.225 89.7319 121.536 90.1027C121.844 90.4742 121.997 90.9033 121.997 91.3913C121.997 92.05 121.731 92.5928 121.199 93.0186C120.666 93.4409 119.982 93.6518 119.15 93.6518C118.317 93.6518 117.638 93.4389 117.106 93.0132H117.107ZM120.482 92.3793C120.826 92.1029 120.998 91.7494 120.998 91.3197C120.998 90.8899 120.826 90.5318 120.482 90.2547C120.134 89.9782 119.69 89.8397 119.15 89.8397C118.609 89.8397 118.167 89.9782 117.824 90.2547C117.476 90.5351 117.302 90.8899 117.302 91.3197C117.302 91.7494 117.476 92.1022 117.824 92.3793C118.171 92.6558 118.614 92.7943 119.15 92.7943C119.685 92.7943 120.133 92.6558 120.482 92.3793ZM120.275 88.612C120.565 88.3684 120.71 88.0551 120.71 87.6729C120.71 87.2906 120.566 86.97 120.275 86.723C119.985 86.4793 119.61 86.3568 119.15 86.3568C118.689 86.3568 118.315 86.4807 118.024 86.7284C117.734 86.972 117.589 87.2873 117.589 87.6729C117.589 88.0584 117.734 88.3684 118.024 88.612C118.315 88.8557 118.689 88.9782 119.15 88.9782C119.61 88.9782 119.981 88.8563 120.275 88.612Z" fill="black"/>
<path d="M135.591 86.6865H135.569L133.492 88.1879V87.1503L135.579 85.6436H136.536V93.5229H135.591V86.6865Z" fill="black"/>
<path d="M139.309 93.0972C138.834 92.7257 138.537 92.231 138.417 91.6118H139.412C139.517 91.9686 139.716 92.2564 140.01 92.4746C140.304 92.6895 140.644 92.7966 141.032 92.7966C141.684 92.7966 142.191 92.5108 142.554 91.9391C142.912 91.3715 143.099 90.5629 143.113 89.5146H143.097C142.93 89.9042 142.649 90.2175 142.255 90.4538C141.856 90.6867 141.406 90.8032 140.907 90.8032C140.16 90.8032 139.539 90.5555 139.042 90.0608C138.549 89.5655 138.303 88.945 138.303 88.1986C138.303 87.4522 138.566 86.7768 139.091 86.2708C139.613 85.7614 140.276 85.5063 141.081 85.5063C141.672 85.5063 142.192 85.659 142.641 85.9649C143.09 86.2741 143.435 86.7112 143.674 87.2755C143.931 87.8726 144.06 88.5969 144.06 89.449C144.06 90.7778 143.793 91.8099 143.261 92.5449C142.728 93.2839 141.981 93.6534 141.021 93.6534C140.354 93.6534 139.784 93.468 139.309 93.0965V93.0972ZM142.368 89.4443C142.713 89.113 142.885 88.696 142.885 88.1939C142.885 87.6919 142.713 87.2621 142.368 86.9161C142.024 86.57 141.595 86.3919 141.091 86.3919C140.587 86.3919 140.162 86.5646 139.814 86.9107C139.466 87.2528 139.292 87.6718 139.292 88.1665C139.292 88.6612 139.461 89.1036 139.798 89.439C140.135 89.7737 140.561 89.941 141.075 89.941C141.59 89.941 142.025 89.7757 142.369 89.4443H142.368Z" fill="black"/>
<path d="M0.391113 105.426C0.391113 104.738 0.637655 104.165 1.13007 103.706C1.62316 103.251 2.23884 103.023 2.9778 103.023C3.67745 103.023 4.26981 103.232 4.7549 103.651C5.24065 104.069 5.4832 104.581 5.4832 105.185C5.4832 105.622 5.36193 106.044 5.11872 106.452C4.88284 106.852 4.43573 107.395 3.77606 108.079L1.7924 110.137V110.159H5.6138V111.033H0.439755V110.356L3.20102 107.435C3.72676 106.878 4.07591 106.456 4.24982 106.168C4.4204 105.881 4.50503 105.573 4.50503 105.245C4.50503 104.866 4.35444 104.544 4.05392 104.279C3.74941 104.013 3.3816 103.88 2.95048 103.88C2.49005 103.88 2.10624 104.027 1.7984 104.322C1.49056 104.617 1.33663 104.985 1.33663 105.425V105.431H0.391113V105.425V105.426Z" fill="black"/>
<path d="M7.35427 110.062C6.84719 109.338 6.59332 108.348 6.59332 107.091C6.59332 105.835 6.84719 104.86 7.35427 104.132C7.87267 103.393 8.58298 103.023 9.48519 103.023C10.3874 103.023 11.0957 103.391 11.6101 104.127C12.1139 104.851 12.3657 105.838 12.3657 107.086C12.3657 108.334 12.1139 109.332 11.6101 110.057C11.099 110.796 10.3907 111.165 9.48519 111.165C8.57965 111.165 7.86535 110.798 7.35427 110.062ZM10.8925 109.434C11.2183 108.87 11.3816 108.089 11.3816 107.091C11.3816 106.093 11.217 105.331 10.8871 104.76C10.55 104.177 10.0829 103.886 9.48452 103.886C8.88616 103.886 8.41707 104.179 8.07657 104.765C7.74341 105.337 7.57682 106.11 7.57682 107.086C7.57682 108.062 7.74141 108.866 8.07124 109.434C8.4084 110.017 8.8795 110.308 9.48452 110.308C10.0896 110.308 10.5586 110.017 10.8925 109.434Z" fill="black"/>
<path d="M23.7973 105.557C23.7973 104.869 24.0438 104.296 24.5363 103.837C25.0293 103.382 25.645 103.154 26.3847 103.154C27.0843 103.154 27.6767 103.364 28.1618 103.782C28.6475 104.201 28.89 104.712 28.89 105.316C28.89 105.754 28.7688 106.175 28.5256 106.584C28.2904 106.984 27.8426 107.526 27.1829 108.211L25.1986 110.269V110.291H29.02V111.165H23.8453V110.487L26.6065 107.566C27.1323 107.009 27.4814 106.587 27.6553 106.299C27.8259 106.011 27.9105 105.704 27.9105 105.376C27.9105 104.997 27.76 104.675 27.4594 104.409C27.1549 104.144 26.7871 104.011 26.356 104.011C25.8956 104.011 25.5118 104.158 25.2039 104.454C24.8961 104.749 24.7422 105.116 24.7422 105.557V105.562H23.7966V105.557L23.7973 105.557Z" fill="black"/>
<path d="M32.1464 104.329H32.1244L30.0482 105.83V104.793L32.1351 103.286H33.0919V111.165H32.1464V104.329Z" fill="black"/>
<path d="M44.7493 105.557C44.7493 104.869 44.9959 104.296 45.4883 103.837C45.9814 103.382 46.5971 103.154 47.336 103.154C48.0357 103.154 48.628 103.364 49.1131 103.782C49.5989 104.201 49.8414 104.712 49.8414 105.316C49.8414 105.754 49.7201 106.175 49.4769 106.584C49.2417 106.984 48.7939 107.526 48.1343 108.211L46.1506 110.269V110.291H49.972V111.165H44.7973V110.487L47.5586 107.566C48.0843 107.009 48.4335 106.587 48.6074 106.299C48.7779 106.011 48.8626 105.704 48.8626 105.376C48.8626 104.997 48.712 104.675 48.4115 104.409C48.107 104.144 47.7391 104.011 47.308 104.011C46.8476 104.011 46.4638 104.158 46.1559 104.454C45.8481 104.749 45.6942 105.116 45.6942 105.557V105.562H44.7487V105.557L44.7493 105.557Z" fill="black"/>
<path d="M51.0488 105.557C51.0488 104.869 51.2954 104.296 51.7878 103.837C52.2809 103.382 52.8966 103.154 53.6355 103.154C54.3352 103.154 54.9275 103.364 55.4126 103.782C55.8984 104.201 56.1409 104.712 56.1409 105.316C56.1409 105.754 56.0196 106.175 55.7764 106.584C55.5412 106.984 55.0934 107.526 54.4338 108.211L52.4501 110.269V110.291H56.2715V111.165H51.0968V110.487L53.8581 107.566C54.3838 107.009 54.733 106.587 54.9069 106.299C55.0774 106.011 55.1621 105.704 55.1621 105.376C55.1621 104.997 55.0115 104.675 54.711 104.409C54.4065 104.144 54.0386 104.011 53.6075 104.011C53.1471 104.011 52.7633 104.158 52.4554 104.454C52.1476 104.749 51.9937 105.116 51.9937 105.557V105.562H51.0482V105.557L51.0488 105.557Z" fill="black"/>
<path d="M66.7068 105.426C66.7068 104.738 66.9534 104.165 67.4458 103.706C67.9389 103.251 68.5546 103.023 69.2942 103.023C69.9938 103.023 70.5862 103.232 71.0713 103.651C71.5571 104.069 71.7996 104.581 71.7996 105.185C71.7996 105.622 71.6783 106.044 71.4351 106.452C71.1992 106.852 70.7521 107.395 70.0925 108.079L68.1088 110.137V110.159H71.9302V111.033H66.7555V110.356L69.5168 107.435C70.0425 106.878 70.3916 106.456 70.5656 106.168C70.7361 105.881 70.8208 105.573 70.8208 105.245C70.8208 104.866 70.6702 104.544 70.3697 104.279C70.0651 104.013 69.6973 103.88 69.2662 103.88C68.8058 103.88 68.422 104.027 68.1141 104.322C67.8063 104.617 67.6524 104.985 67.6524 105.425V105.431H66.7068V105.425V105.426Z" fill="black"/>
<path d="M74.6535 106.567H75.5936C76.0428 106.567 76.4106 106.436 76.6971 106.175C76.9836 105.916 77.1262 105.587 77.1262 105.187C77.1262 104.786 76.9976 104.47 76.7404 104.237C76.4685 103.996 76.0901 103.877 75.6043 103.877C75.1552 103.877 74.7887 103.996 74.5062 104.237C74.2237 104.477 74.0604 104.804 74.0171 105.219H73.0769C73.1316 104.549 73.3888 104.016 73.8485 103.619C74.3123 103.223 74.912 103.024 75.6476 103.024C76.3833 103.024 76.9396 103.216 77.4034 103.598C77.8745 103.98 78.1097 104.466 78.1097 105.056C78.1097 105.547 77.9651 105.96 77.6746 106.296C77.3847 106.63 76.9936 106.842 76.5005 106.929V106.951C77.0949 106.987 77.568 107.177 77.9191 107.519C78.271 107.865 78.4462 108.314 78.4462 108.867C78.4462 109.538 78.1783 110.089 77.6419 110.522C77.1129 110.952 76.4585 111.167 75.6796 111.167C74.9007 111.167 74.2117 110.961 73.7119 110.55C73.2189 110.145 72.9543 109.613 72.9183 108.95H73.8585C73.9018 109.361 74.0831 109.689 74.4023 109.932C74.7281 110.188 75.1505 110.315 75.6689 110.315C76.1873 110.315 76.6145 110.181 76.9516 109.916C77.2848 109.651 77.4514 109.312 77.4514 108.901C77.4514 108.438 77.2881 108.073 76.9623 107.803C76.6398 107.534 76.198 107.399 75.6363 107.399H74.6521V106.569L74.6535 106.567Z" fill="black"/>
<path d="M88.713 105.557C88.713 104.869 88.9595 104.296 89.452 103.837C89.945 103.382 90.5607 103.154 91.2997 103.154C91.9993 103.154 92.5917 103.364 93.0768 103.782C93.5625 104.201 93.8051 104.712 93.8051 105.316C93.8051 105.754 93.6838 106.175 93.4406 106.584C93.2054 106.984 92.7576 107.526 92.098 108.211L90.1143 110.269V110.291H93.9357V111.165H88.761V110.487L91.5223 107.566C92.048 107.009 92.3971 106.587 92.5711 106.299C92.7416 106.011 92.8263 105.704 92.8263 105.376C92.8263 104.997 92.6757 104.675 92.3751 104.409C92.0706 104.144 91.7028 104.011 91.2717 104.011C90.8113 104.011 90.4275 104.158 90.1196 104.454C89.8118 104.749 89.6579 105.116 89.6579 105.557V105.562H88.7123V105.557L88.713 105.557Z" fill="black"/>
<path d="M98.5187 109.527H94.5781V108.637C95.2011 107.475 96.3485 105.691 98.019 103.286H99.4649V108.664H100.574V109.527H99.4649V111.165H98.5194V109.527H98.5187ZM95.5456 108.664H98.5187V104.105H98.5021C97.1288 106.074 96.1433 107.587 95.5449 108.643V108.665L95.5456 108.664Z" fill="black"/>
<path d="M110.791 105.426C110.791 104.738 111.037 104.165 111.529 103.706C112.023 103.251 112.638 103.023 113.378 103.023C114.078 103.023 114.67 103.232 115.155 103.651C115.641 104.069 115.883 104.581 115.883 105.185C115.883 105.622 115.762 106.044 115.519 106.452C115.283 106.852 114.836 107.395 114.176 108.079L112.192 110.137V110.159H116.014V111.033H110.839V110.356L113.6 107.435C114.126 106.878 114.475 106.456 114.649 106.168C114.82 105.881 114.904 105.573 114.904 105.245C114.904 104.866 114.754 104.544 114.453 104.279C114.149 104.013 113.781 103.88 113.35 103.88C112.889 103.88 112.506 104.027 112.198 104.322C111.89 104.617 111.736 104.985 111.736 105.425V105.431H110.791V105.425V105.426Z" fill="black"/>
<path d="M117.96 110.526C117.456 110.1 117.184 109.552 117.144 108.883H118.106C118.149 109.301 118.333 109.644 118.655 109.909C118.978 110.171 119.374 110.302 119.845 110.302C120.378 110.302 120.813 110.135 121.15 109.8C121.483 109.466 121.65 109.032 121.65 108.501C121.65 107.969 121.483 107.534 121.15 107.196C120.813 106.854 120.384 106.682 119.862 106.682C119.086 106.682 118.527 106.977 118.182 107.567H117.263L117.693 103.155H122.183V104.029H118.497L118.258 106.595H118.28C118.657 106.089 119.242 105.836 120.036 105.836C120.829 105.836 121.409 106.084 121.895 106.579C122.384 107.077 122.629 107.709 122.629 108.474C122.629 109.238 122.368 109.909 121.846 110.412C121.324 110.914 120.654 111.166 119.835 111.166C119.084 111.166 118.459 110.953 117.96 110.527V110.526Z" fill="black"/>
<path d="M132.794 105.421C132.794 104.733 133.041 104.16 133.533 103.701C134.026 103.246 134.642 103.018 135.381 103.018C136.081 103.018 136.673 103.228 137.158 103.646C137.644 104.064 137.887 104.576 137.887 105.18C137.887 105.617 137.765 106.039 137.522 106.447C137.287 106.847 136.839 107.39 136.18 108.074L134.195 110.132V110.154H138.017V111.028H132.842V110.351L135.603 107.43C136.129 106.873 136.478 106.451 136.652 106.164C136.823 105.876 136.907 105.568 136.907 105.24C136.907 104.862 136.757 104.54 136.456 104.274C136.152 104.008 135.784 103.876 135.353 103.876C134.892 103.876 134.508 104.023 134.201 104.318C133.893 104.613 133.739 104.981 133.739 105.421V105.427H132.793V105.421H132.794Z" fill="black"/>
<path d="M140.425 110.701C139.976 110.395 139.63 109.959 139.387 109.39C139.13 108.793 139.002 108.071 139.002 107.223C139.002 105.894 139.269 104.861 139.806 104.122C140.338 103.383 141.085 103.013 142.045 103.013C142.712 103.013 143.281 103.199 143.752 103.57C144.223 103.942 144.522 104.436 144.649 105.055H143.654C143.549 104.699 143.349 104.413 143.056 104.198C142.763 103.987 142.422 103.881 142.034 103.881C141.378 103.881 140.871 104.163 140.512 104.727C140.154 105.292 139.965 106.098 139.947 107.147H139.964C140.141 106.761 140.429 106.451 140.828 106.218C141.226 105.985 141.669 105.869 142.154 105.869C142.9 105.869 143.522 106.116 144.018 106.611C144.511 107.106 144.757 107.727 144.757 108.473C144.757 109.22 144.496 109.895 143.974 110.401C143.449 110.911 142.784 111.166 141.979 111.166C141.392 111.166 140.874 111.011 140.425 110.702L140.425 110.701ZM143.241 109.773C143.589 109.427 143.763 109.005 143.763 108.506C143.763 108.007 143.597 107.565 143.263 107.234C142.93 106.899 142.504 106.732 141.986 106.732C141.468 106.732 141.036 106.897 140.693 107.228C140.352 107.56 140.182 107.977 140.182 108.479C140.182 108.981 140.354 109.413 140.698 109.762C141.046 110.115 141.47 110.291 141.97 110.291C142.47 110.291 142.894 110.119 143.242 109.773H143.241Z" fill="black"/>
<path d="M0.720276 125.324C0.720276 124.636 0.966818 124.063 1.45923 123.604C1.95232 123.149 2.56801 122.921 3.30763 122.921C4.00728 122.921 4.59964 123.131 5.08473 123.549C5.57048 123.968 5.81303 124.479 5.81303 125.084C5.81303 125.521 5.69176 125.942 5.44855 126.35C5.21333 126.75 4.76556 127.293 4.10589 127.977L2.12223 130.036V130.058H5.94363V130.931H0.768918V130.254L3.53018 127.333C4.05592 126.776 4.40507 126.353 4.57899 126.065C4.74957 125.778 4.83419 125.47 4.83419 125.142C4.83419 124.764 4.6836 124.442 4.38309 124.176C4.07857 123.91 3.71076 123.778 3.27965 123.778C2.81921 123.778 2.43541 123.925 2.12756 124.22C1.81972 124.515 1.6658 124.883 1.6658 125.323V125.329H0.720276V125.323V125.324Z" fill="black"/>
<path d="M11.069 123.948V123.926H6.84583V123.053H12.0365V123.964L8.54696 130.932H7.51948L11.069 123.948Z" fill="black"/>
<path d="M22.4979 125.259C22.4979 124.57 22.7445 123.997 23.2369 123.538C23.73 123.083 24.3457 122.855 25.0853 122.855C25.7849 122.855 26.3773 123.065 26.8624 123.483C27.3481 123.902 27.5907 124.413 27.5907 125.018C27.5907 125.455 27.4694 125.876 27.2262 126.285C26.9903 126.685 26.5432 127.228 25.8835 127.912L23.8999 129.97V129.992H27.7213V130.866H22.5466V130.189L25.3078 127.268C25.8336 126.711 26.1827 126.289 26.3566 126.002C26.5272 125.714 26.6118 125.407 26.6118 125.079C26.6118 124.7 26.4612 124.378 26.1607 124.112C25.8562 123.846 25.4884 123.714 25.0573 123.714C24.5969 123.714 24.2131 123.861 23.9052 124.156C23.5974 124.451 23.4434 124.819 23.4434 125.259V125.265H22.4979V125.259V125.259Z" fill="black"/>
<path d="M29.4991 130.358C28.9667 129.936 28.7001 129.396 28.7001 128.737C28.7001 128.245 28.8541 127.813 29.1619 127.443C29.4697 127.071 29.8775 126.827 30.3846 126.711V126.689C29.9608 126.558 29.6257 126.334 29.3791 126.017C29.1326 125.704 29.0093 125.341 29.0093 124.926C29.0093 124.333 29.2505 123.839 29.7323 123.446C30.2107 123.053 30.8137 122.856 31.542 122.856C32.2703 122.856 32.8793 123.051 33.3571 123.44C33.8315 123.833 34.0694 124.331 34.0694 124.931C34.0694 125.343 33.9481 125.703 33.7049 126.012C33.4624 126.329 33.1272 126.554 32.6994 126.689V126.711C33.2065 126.831 33.6163 127.077 33.9282 127.448C34.236 127.819 34.3899 128.249 34.3899 128.737C34.3899 129.395 34.1234 129.938 33.591 130.364C33.0586 130.786 32.3749 130.997 31.542 130.997C30.7091 130.997 30.0308 130.784 29.4984 130.358H29.4991ZM32.8747 129.725C33.2192 129.448 33.3911 129.095 33.3911 128.665C33.3911 128.235 33.2192 127.877 32.8747 127.6C32.5269 127.323 32.0831 127.185 31.5427 127.185C31.0023 127.185 30.5605 127.323 30.2167 127.6C29.8689 127.88 29.695 128.235 29.695 128.665C29.695 129.095 29.8689 129.447 30.2167 129.725C30.5645 130.001 31.0063 130.14 31.5427 130.14C32.0791 130.14 32.5262 130.001 32.8747 129.725ZM32.6681 125.957C32.958 125.714 33.1032 125.4 33.1032 125.018C33.1032 124.636 32.958 124.315 32.6681 124.068C32.3783 123.825 32.0031 123.702 31.5427 123.702C31.0823 123.702 30.7071 123.826 30.4173 124.074C30.1274 124.317 29.9822 124.633 29.9822 125.018C29.9822 125.404 30.1274 125.714 30.4173 125.957C30.7071 126.201 31.0823 126.323 31.5427 126.323C32.0031 126.323 32.3743 126.202 32.6681 125.957Z" fill="black"/>
<path d="M44.5701 125.261C44.5701 124.573 44.8166 124 45.309 123.541C45.8021 123.086 46.4178 122.858 47.1574 122.858C47.8571 122.858 48.4494 123.068 48.9345 123.486C49.4203 123.905 49.6628 124.416 49.6628 125.021C49.6628 125.458 49.5415 125.879 49.2983 126.288C49.0625 126.688 48.6154 127.231 47.9557 127.915L45.972 129.973V129.995H49.7934V130.869H44.6187V130.192L47.38 127.271C47.9057 126.714 48.2549 126.292 48.4288 126.005C48.5994 125.717 48.684 125.409 48.684 125.081C48.684 124.703 48.5334 124.381 48.2329 124.115C47.9284 123.849 47.5606 123.717 47.1294 123.717C46.669 123.717 46.2852 123.864 45.9774 124.159C45.6695 124.454 45.5156 124.822 45.5156 125.262V125.268H44.5701V125.262V125.261Z" fill="black"/>
<path d="M51.7011 130.443C51.2267 130.072 50.9295 129.577 50.8096 128.958H51.8044C51.9097 129.315 52.1089 129.602 52.4021 129.821C52.6953 130.036 53.0364 130.143 53.4242 130.143C54.0766 130.143 54.5836 129.857 54.9461 129.285C55.3046 128.718 55.4912 127.909 55.5059 126.861H55.4899C55.3233 127.25 55.0421 127.563 54.6476 127.8C54.2492 128.033 53.8 128.149 53.2996 128.149C52.5533 128.149 51.9317 127.902 51.4352 127.407C50.9422 126.912 50.6963 126.291 50.6963 125.545C50.6963 124.798 50.9588 124.123 51.4846 123.617C52.0063 123.108 52.6693 122.853 53.4742 122.853C54.0646 122.853 54.585 123.006 55.0341 123.312C55.4832 123.621 55.8277 124.058 56.0669 124.622C56.3241 125.219 56.4527 125.944 56.4527 126.796C56.4527 128.124 56.1862 129.157 55.6538 129.892C55.1214 130.631 54.3744 131 53.4142 131C52.7472 131 52.1769 130.815 51.7018 130.443H51.7011ZM54.7616 126.79C55.1061 126.459 55.278 126.042 55.278 125.54C55.278 125.038 55.1061 124.608 54.7616 124.262C54.4137 123.913 53.988 123.738 53.4842 123.738C52.9805 123.738 52.5547 123.911 52.2069 124.257C51.859 124.599 51.6851 125.018 51.6851 125.512C51.6851 126.007 51.8537 126.45 52.1909 126.785C52.528 127.12 52.9538 127.287 53.4682 127.287C53.9826 127.287 54.4177 127.122 54.7616 126.79Z" fill="black"/>
<path d="M68.1361 126.4H69.0763C69.5254 126.4 69.8932 126.269 70.1797 126.007C70.4663 125.749 70.6089 125.42 70.6089 125.019C70.6089 124.618 70.4803 124.302 70.2231 124.069C69.9512 123.828 69.5727 123.709 69.087 123.709C68.6379 123.709 68.2714 123.828 67.9889 124.069C67.7063 124.309 67.5431 124.636 67.4998 125.051H66.5596C66.6142 124.381 66.8714 123.848 67.3312 123.452C67.795 123.055 68.3947 122.856 69.1303 122.856C69.8659 122.856 70.4223 123.048 70.8861 123.43C71.3572 123.812 71.5924 124.298 71.5924 124.888C71.5924 125.379 71.4471 125.792 71.1573 126.128C70.8674 126.462 70.4763 126.674 69.9832 126.761V126.783C70.5776 126.819 71.0506 127.009 71.4018 127.351C71.7536 127.697 71.9289 128.146 71.9289 128.7C71.9289 129.37 71.661 129.921 71.1246 130.354C70.5955 130.784 69.9412 130.999 69.1623 130.999C68.3833 130.999 67.695 130.793 67.1946 130.382C66.7015 129.977 66.437 129.445 66.401 128.782H67.3412C67.3845 129.194 67.5657 129.521 67.8849 129.765C68.2107 130.02 68.6332 130.147 69.1516 130.147C69.67 130.147 70.0971 130.014 70.4343 129.748C70.7675 129.482 70.934 129.143 70.934 128.732C70.934 128.27 70.7708 127.904 70.4449 127.635C70.1224 127.365 69.6807 127.23 69.119 127.23H68.1355V126.4H68.1361Z" fill="black"/>
<path d="M73.7406 129.894C73.2335 129.17 72.9797 128.18 72.9797 126.923C72.9797 125.667 73.2335 124.692 73.7406 123.964C74.259 123.225 74.9693 122.855 75.8715 122.855C76.7738 122.855 77.4821 123.223 77.9965 123.959C78.5002 124.683 78.7521 125.67 78.7521 126.918C78.7521 128.166 78.5002 129.164 77.9965 129.889C77.4854 130.628 76.7771 130.997 75.8715 130.997C74.966 130.997 74.2517 130.63 73.7406 129.894ZM77.2788 129.266C77.6047 128.702 77.7679 127.921 77.7679 126.923C77.7679 125.925 77.6033 125.164 77.2735 124.592C76.9363 124.009 76.4692 123.718 75.8709 123.718C75.2725 123.718 74.8034 124.011 74.4629 124.597C74.1298 125.169 73.9632 125.942 73.9632 126.918C73.9632 127.894 74.1278 128.698 74.4576 129.266C74.7948 129.849 75.2659 130.14 75.8709 130.14C76.4759 130.14 76.945 129.849 77.2788 129.266Z" fill="black"/>
<rect y="3" width="95" height="10" rx="5" fill="#FDEBF0"/>
</g>
<path d="M117.211 14.752L131.816 14.752C133.037 14.752 134.027 13.7576 134.027 12.5309V2.22107C134.027 0.994431 133.037 4.48227e-05 131.816 4.48227e-05L117.211 4.48227e-05C115.99 4.48227e-05 115 0.994431 115 2.22107V12.5309C115 13.7576 115.99 14.752 117.211 14.752Z" fill="#2F2352"/>
<path d="M121.795 6.67725C121.972 6.67725 122.15 6.74552 122.286 6.88208L126.637 11.2532C126.909 11.5263 126.909 11.9687 126.637 12.2412C126.365 12.5143 125.924 12.5143 125.653 12.2412L121.303 7.87009C121.031 7.59698 121.031 7.15452 121.303 6.88208C121.439 6.74552 121.617 6.67725 121.795 6.67725Z" fill="white"/>
<path d="M126.145 2.30615C126.323 2.30615 126.501 2.37443 126.637 2.51098C126.909 2.78409 126.909 3.22656 126.637 3.499L122.286 7.87008C122.014 8.14319 121.574 8.14319 121.303 7.87008C121.031 7.59697 121.031 7.15451 121.303 6.88207L125.653 2.51098C125.789 2.37443 125.967 2.30615 126.145 2.30615Z" fill="white"/>
<path d="M156.222 0H141.617C140.396 0 139.406 0.994384 139.406 2.22102V12.5309C139.406 13.7575 140.396 14.7519 141.617 14.7519H156.222C157.443 14.7519 158.433 13.7575 158.433 12.5309V2.22102C158.433 0.994384 157.443 0 156.222 0Z" fill="#2F2352"/>
<path d="M151.639 8.07491C151.461 8.07491 151.283 8.00664 151.147 7.87008L146.796 3.499C146.525 3.22589 146.525 2.78342 146.796 2.51098C147.068 2.23788 147.509 2.23788 147.78 2.51098L152.13 6.88207C152.402 7.15518 152.402 7.59764 152.13 7.87008C151.995 8.00664 151.817 8.07491 151.639 8.07491Z" fill="white"/>
<path d="M147.288 12.446C147.11 12.446 146.932 12.3777 146.796 12.2412C146.525 11.9681 146.525 11.5256 146.796 11.2532L151.147 6.88208C151.419 6.60897 151.859 6.60897 152.13 6.88208C152.402 7.15519 152.402 7.59765 152.13 7.87009L147.78 12.2412C147.644 12.3777 147.466 12.446 147.288 12.446Z" fill="white"/>
<defs>
<clipPath id="clip0_4105_336">
<rect width="146" height="131" fill="white"/>
</clipPath>
</defs>
</svg>
