<svg width="170" height="35" viewBox="0 0 170 35" fill="none" xmlns="http://www.w3.org/2000/svg">
<path d="M24.2511 30.5726H6.27391C2.81521 30.5726 0 27.7542 0 24.2782V6.28089C0 2.81836 2.81521 0 6.27391 0H24.2511C27.7232 0 30.525 2.81836 30.525 6.28089V24.2782C30.5384 27.7542 27.7232 30.5726 24.2511 30.5726Z" fill="#FDDB32"/>
<path d="M9.32859 24.6278V21.6618C9.32859 21.4202 9.14086 21.2324 8.89962 21.2324H5.93692C5.69561 21.2324 5.50793 21.4202 5.50793 21.6618V24.6278C5.50793 24.8694 5.69561 25.0573 5.93692 25.0573H8.89962C9.14086 25.0573 9.32859 24.8694 9.32859 24.6278Z" fill="#191E3B"/>
<path d="M25.03 22.0766V7.46138C25.03 6.37423 24.1586 5.50189 23.0727 5.50189H8.4738C8.17888 5.50189 8.00463 5.6093 7.81695 5.79715L4.90789 8.7363C4.69339 8.95103 4.84086 9.27316 5.1626 9.27316H18.3673L10.1764 17.4732C10.0289 17.6209 9.96187 17.7685 9.96187 18.0101V20.1709C9.96187 20.4258 10.1362 20.6003 10.3908 20.6003H12.5492C12.8039 20.6003 12.9513 20.5332 13.0854 20.3856L21.2764 12.1854V25.4049C21.2764 25.727 21.5981 25.8747 21.8126 25.6599L24.7485 22.7342C24.9227 22.5463 25.03 22.3719 25.03 22.0766Z" fill="#191E3B"/>
<path d="M69.3486 18.3059L75.3276 10.0387C75.5019 9.78366 75.3678 9.52863 75.0729 9.52863H71.8153C71.641 9.52863 71.4131 9.5958 71.3059 9.78366L67.3646 15.5412L63.3294 9.78366C63.2221 9.60916 63.0077 9.52863 62.82 9.52863H59.3479C59.1737 9.52863 59.053 9.67625 59.053 9.82388C59.053 9.89106 59.053 9.97151 59.12 10.0387L65.1124 18.3327L58.5034 27.432C58.3291 27.687 58.4631 27.942 58.7179 27.942H62.0023C62.1766 27.942 62.4045 27.8749 62.5117 27.687L67.0831 21.0974L71.7215 27.687C71.8287 27.8749 72.0432 27.942 72.2309 27.942H75.7298C75.9041 27.942 76.0247 27.7944 76.0247 27.6467C76.0247 27.5796 75.9845 27.4991 75.9577 27.432L69.3486 18.3059Z" fill="#191E3B"/>
<path d="M55.9965 2.61658C56.2513 2.61658 56.4255 2.79105 56.4255 3.04605V5.50208C56.4255 5.75703 56.2513 5.93153 55.9965 5.93153H44.3201V13.2324H54.8035C55.0582 13.2324 55.2325 13.4069 55.2325 13.6619V16.1044C55.2325 16.3595 55.0582 16.5339 54.8035 16.5339H44.3201V24.5328H55.9965C56.2513 24.5328 56.4255 24.7072 56.4255 24.9622V27.4987C56.4255 27.7537 56.2513 27.9281 55.9965 27.9281H42.336C41.2904 27.9281 40.4995 27.1363 40.4995 26.0895V4.45524C40.4995 3.40841 41.2904 2.61658 42.336 2.61658H55.9965Z" fill="#191E3B"/>
<path d="M88.3299 8.95117C84.7912 8.95117 82.914 10.5079 81.8282 11.9574V9.95771C81.8282 9.70267 81.6544 9.52825 81.3997 9.52825H78.544C78.2893 9.52825 78.115 9.71611 78.115 9.95771V33.793C78.115 34.048 78.2893 34.2225 78.544 34.2225H81.4393C81.694 34.2225 81.8686 34.048 81.8686 33.793V25.5795C82.914 27.0289 84.7912 28.4784 88.3299 28.4784C94.0813 28.4784 97.4324 24.1435 97.4324 18.7081C97.4324 13.2727 94.0813 8.95117 88.3299 8.95117ZM87.6864 25.3647C84.1477 25.3647 81.7215 22.9759 81.7215 18.7483C81.7215 14.5208 84.1477 12.0513 87.6864 12.0513C91.2258 12.0513 93.6124 14.5073 93.6124 18.7483C93.6124 22.9759 91.2258 25.3647 87.6864 25.3647Z" fill="#191E3B"/>
<path d="M108.828 8.95117C103.801 8.95117 99.7925 12.5747 99.7925 18.5739C99.7925 24.7206 103.331 28.4918 109.297 28.4918C112.729 28.4918 115.584 26.9752 117.354 24.8682C117.461 24.7608 117.501 24.6535 117.501 24.5461C117.501 24.4387 117.461 24.3313 117.354 24.224L115.692 22.5867C115.584 22.4793 115.477 22.439 115.37 22.439C115.263 22.439 115.155 22.5061 115.048 22.6135C113.68 24.1032 111.898 25.3647 109.337 25.3647C105.596 25.3647 103.801 23.0564 103.519 19.728H117.394C117.648 19.728 117.823 19.5401 117.823 19.2986V18.5739C117.823 13.0713 114.499 8.95117 108.828 8.95117ZM103.653 16.9096C104.082 13.89 105.664 11.9171 108.801 11.9171C112.018 11.9171 113.721 13.7558 113.962 16.9096H103.653Z" fill="#191E3B"/>
<path d="M169.489 9.52879H166.633C166.379 9.52879 166.204 9.70329 166.204 9.95824V11.9848C165.118 10.5353 163.242 8.97858 159.622 8.97858C153.952 8.97858 150.587 13.3135 150.587 18.7489C150.587 24.1843 153.952 28.5192 159.622 28.5192C163.242 28.5192 165.118 26.9624 166.204 25.513V27.4993C166.204 27.7542 166.379 27.9287 166.633 27.9287H169.489C169.744 27.9287 169.918 27.7542 169.918 27.4993V9.95824C169.931 9.70329 169.744 9.52879 169.489 9.52879ZM160.346 25.4056C156.807 25.4056 154.421 22.9496 154.421 18.7086C154.421 14.4811 156.807 12.0921 160.346 12.0921C163.885 12.0921 166.312 14.4811 166.312 18.7086C166.312 22.9496 163.885 25.4056 160.346 25.4056Z" fill="#191E3B"/>
<path d="M139.074 2.61658H136.178C135.923 2.61658 135.749 2.79105 135.749 3.04605V11.9843C134.663 10.5348 132.827 8.978 129.207 8.978C123.536 8.978 120.172 13.3129 120.172 18.7483C120.172 24.1838 123.536 28.5187 129.207 28.5187C132.827 28.5187 134.703 26.9619 135.789 25.5124V27.4987C135.789 27.7537 135.963 27.9281 136.218 27.9281H139.074C139.328 27.9281 139.502 27.7537 139.502 27.4987V3.04605C139.502 2.79105 139.328 2.61658 139.074 2.61658ZM129.931 25.4051C126.392 25.4051 124.005 22.9491 124.005 18.7081C124.005 14.4805 126.392 12.0917 129.931 12.0917C133.47 12.0917 135.896 14.4805 135.896 18.7081C135.896 22.9491 133.47 25.4051 129.931 25.4051Z" fill="#191E3B"/>
<path d="M146.942 2.61658C147.197 2.61658 147.371 2.79105 147.371 3.04605V6.01206C147.371 6.26701 147.197 6.44151 146.942 6.44151H143.979C143.725 6.44151 143.551 6.26701 143.551 6.01206V3.04605C143.551 2.79105 143.725 2.61658 143.979 2.61658H146.942Z" fill="#191E3B"/>
<path d="M146.913 9.52863C147.168 9.52863 147.342 9.70313 147.342 9.95816V27.4991C147.342 27.7541 147.168 27.9286 146.913 27.9286H144.017C143.763 27.9286 143.588 27.7541 143.588 27.4991V9.95816C143.588 9.70313 143.763 9.52863 144.017 9.52863H146.913Z" fill="#191E3B"/>
</svg>
