<svg width="64" height="64" viewBox="0 0 64 64" fill="none" xmlns="http://www.w3.org/2000/svg">
<g filter="url(#filter0_i_1_1337)">
<rect width="63.1543" height="63.1543" rx="9" fill="#34E0A1"/>
</g>
<path d="M50.2421 25.8668L53.9704 21.8202H45.706C36.9411 15.8689 25.4205 15.8689 16.6556 21.8202H8.36951L12.0978 25.8668C7.45992 30.1094 7.14797 37.2997 11.4004 41.9269C15.6528 46.554 22.8599 46.8653 27.4978 42.6227C27.5044 42.6168 27.5109 42.6109 27.5175 42.605L31.1703 46.5698L34.8205 42.6077C36.924 44.5569 39.6895 45.6387 42.5608 45.6348C48.8531 45.6348 53.9586 40.5457 53.9586 34.268C53.9625 31.0706 52.6129 28.0192 50.2421 25.8675V25.8668ZM19.7745 41.9597C15.5162 41.9597 12.0643 38.5158 12.0643 34.2674C12.0643 30.0189 15.5162 26.5751 19.7745 26.5751C24.0328 26.5751 27.4846 30.0189 27.4846 34.2674C27.4846 38.5158 24.0328 41.9597 19.7745 41.9597ZM31.1703 34.0459C31.1703 28.9837 27.4794 24.6403 22.6123 22.7827C28.0889 20.5065 34.2498 20.5065 39.7263 22.7827C34.8599 24.6409 31.1703 28.9844 31.1703 34.0459ZM42.5608 41.9597C38.3025 41.9597 34.8507 38.5158 34.8507 34.2674C34.8507 30.0189 38.3025 26.5751 42.5608 26.5751C46.8191 26.5751 50.271 30.0189 50.271 34.2674C50.271 38.5158 46.8191 41.9597 42.5608 41.9597ZM42.5608 30.2352C40.3286 30.2352 38.5186 32.041 38.5186 34.268C38.5186 36.4951 40.3286 38.3009 42.5608 38.3009C44.7931 38.3009 46.6031 36.4951 46.6031 34.268C46.6031 32.0403 44.7938 30.2352 42.5615 30.2352H42.5608ZM23.8167 34.2674C23.8167 36.4945 22.0074 38.3003 19.7751 38.3009C17.5429 38.3009 15.7329 36.4958 15.7322 34.2687C15.7322 32.0416 17.5416 30.2358 19.7738 30.2352H19.7745C22.0068 30.2352 23.8161 32.0403 23.8167 34.2674Z" fill="black"/>
<defs>
<filter id="filter0_i_1_1337" x="0" y="-2" width="63.1543" height="65.1543" filterUnits="userSpaceOnUse" color-interpolation-filters="sRGB">
<feFlood flood-opacity="0" result="BackgroundImageFix"/>
<feBlend mode="normal" in="SourceGraphic" in2="BackgroundImageFix" result="shape"/>
<feColorMatrix in="SourceAlpha" type="matrix" values="0 0 0 0 0 0 0 0 0 0 0 0 0 0 0 0 0 0 127 0" result="hardAlpha"/>
<feOffset dy="-2"/>
<feGaussianBlur stdDeviation="3.15"/>
<feComposite in2="hardAlpha" operator="arithmetic" k2="-1" k3="1"/>
<feColorMatrix type="matrix" values="0 0 0 0 0 0 0 0 0 0 0 0 0 0 0 0 0 0 0.25 0"/>
<feBlend mode="normal" in2="shape" result="effect1_innerShadow_1_1337"/>
</filter>
</defs>
</svg>
