<svg width="151" height="39" viewBox="0 0 151 39" fill="none" xmlns="http://www.w3.org/2000/svg">
<path d="M30.1967 38.0254H7.81206C3.50541 38.0254 0 34.52 0 30.1966V7.81208C0 3.50541 3.50541 0 7.81206 0H30.1967C34.52 0 38.0087 3.50541 38.0087 7.81208V30.1966C38.0254 34.52 34.52 38.0254 30.1967 38.0254Z" fill="#0E214B"/>
<path fill-rule="evenodd" clip-rule="evenodd" d="M117.978 11.8026C120.432 12.1363 122.084 13.9559 121.751 17.5448C120.933 26.3583 113.288 35.3723 101.97 35.1219L101.62 35.1052L101.653 35.0384C112.737 35.0718 119.681 25.7574 120.432 17.4946C120.732 14.2563 119.247 12.6038 117.077 12.3032C113.872 11.8526 109.999 13.8057 107.662 17.1107L107.579 17.2275L107.545 17.1775C110.016 13.4384 114.373 11.3018 117.978 11.8026ZM140.73 11.6857C148.242 12.1197 150.411 17.6115 150.362 20.6162C150.228 28.6786 143.952 34.3373 133.218 35.0885L132.884 35.1052L132.901 35.0552C142.901 34.2873 149.059 27.8272 149.193 19.8316C149.243 17.094 147.374 12.4034 140.88 11.7691L140.68 11.7524L140.73 11.6857ZM101.035 2.93883C102.154 4.40777 100.768 7.39575 99.9838 9.39884L99.9504 9.48223L93.7575 25.5738C93.3402 26.6421 92.8561 27.844 92.7393 29.1459C92.4722 32.1673 95.1263 34.7713 100.368 35.0384L100.535 35.0552L100.518 35.1052C94.4252 34.9216 91.5039 31.9169 91.7878 28.5951C91.9046 27.2931 92.3052 26.2415 92.6891 25.2399L92.7393 25.1064L98.8988 9.13176C98.9655 8.93139 99.0323 8.74782 99.1157 8.54745L99.1825 8.3472C99.2159 8.24702 99.2493 8.16351 99.2994 8.06345L99.3661 7.87975C100.034 6.11039 100.585 4.47454 99.6666 3.37284L99.6165 3.32276V3.2393L101.035 2.93883ZM139.629 11.6189L139.611 11.669C130.263 12.4201 123.454 18.9469 123.304 26.8926C123.253 29.6301 125.173 34.4208 131.633 34.9716L131.833 34.9883L131.816 35.0384C124.288 34.6044 122.118 29.0625 122.168 26.0578C122.302 17.9621 129.162 12.2699 139.629 11.6189ZM116.142 12.8876C118.128 13.1713 119.397 14.6236 119.13 17.4779C118.413 25.1565 111.568 34.7046 101.987 34.955H101.703L101.72 34.9048C110.467 34.3707 117.21 24.5722 117.878 17.4446C118.112 14.9407 116.96 13.6386 115.257 13.405C112.787 13.0711 109.749 14.6736 107.812 17.2944L107.729 17.3944L107.696 17.3444C109.799 14.2563 113.288 12.4869 116.142 12.8876ZM140.663 11.8192C146.438 12.2866 148.208 16.443 148.175 18.9802C148.041 26.7589 142.115 34.1371 133.252 34.9383L132.985 34.955L133.002 34.9048C140.997 34.0869 146.94 25.9076 147.074 18.179C147.107 15.9088 145.454 12.4368 140.78 11.8859L140.646 11.8693L140.663 11.8192ZM103.957 2.3379C104.908 3.62322 103.189 7.4291 102.554 9.04826L102.521 9.11509L95.8107 26.4585C95.3934 27.4767 94.7924 29.0124 94.6756 30.3144C94.4586 32.785 96.5785 34.6545 100.468 34.9048H100.585L100.568 34.955C95.8607 34.7713 93.4737 32.5179 93.7074 29.7469C93.8243 28.4449 94.3251 27.1595 94.7424 26.1247L94.7924 25.9911L101.286 9.14844C101.987 7.41242 103.406 4.30762 102.471 2.80529L102.421 2.73852V2.65506L103.957 2.3379ZM139.561 11.7691L139.545 11.8192C131.783 12.6372 125.64 20.9667 125.506 28.5451C125.473 30.8152 126.858 34.3373 131.749 34.8548L131.899 34.8715L131.883 34.9216C126.107 34.5377 124.321 30.2477 124.372 27.7105C124.489 19.915 130.864 12.4201 139.561 11.7691ZM106.961 1.72028C107.445 3.13914 105.459 7.71286 105.058 8.7645L105.042 8.79785L97.8805 27.3098C97.4632 28.3782 96.7955 30.1309 96.6786 31.4328C96.5618 32.8017 97.2462 33.7698 98.6317 34.2706C99.5331 34.6044 100.334 34.7212 100.635 34.7546H100.668L100.651 34.8048C97.2796 34.571 95.4768 33.0521 95.6772 30.8319C95.7772 29.6134 96.3949 28.0276 96.8289 26.9593L96.879 26.8424L103.873 8.74782C104.34 7.54596 106.227 3.32276 105.542 2.13759L105.509 2.08752V2.00405L106.961 1.72028ZM140.596 11.9695C144.636 12.4201 145.971 15.2913 145.938 17.3444C145.804 24.8393 140.23 33.8867 133.252 34.7881L133.035 34.8048L133.068 34.7546C139.16 33.9367 144.703 23.9714 144.837 16.5432C144.87 14.7404 143.768 12.537 140.68 12.0195L140.563 12.0028L140.596 11.9695ZM114.373 13.9892C115.808 14.1896 116.776 15.3079 116.576 17.4279C115.992 23.8043 110.066 33.6196 102.037 34.7546L101.787 34.7881L101.803 34.7379C109.181 33.1856 114.723 23.1868 115.274 17.3444C115.441 15.6251 114.673 14.6736 113.438 14.5067C111.719 14.273 109.532 15.4582 107.946 17.4779L107.863 17.5781L107.829 17.528C109.482 15.1577 112.186 13.6888 114.373 13.9892ZM48.1036 5.27578C48.1203 5.29247 48.137 5.29247 48.1537 5.30916L48.2038 5.34255C48.9884 5.92679 49.873 6.77808 50.7076 10.6007L50.7411 10.7342L55.9157 34.7379H54.7473C54.7473 34.7379 49.6226 10.9512 49.6059 10.9178C48.8715 7.56264 47.9368 6.11039 46.0839 5.34255L46.0004 5.30916V5.25909L48.1036 5.27578ZM51.993 5.27578C52.0097 5.40932 52.0263 5.52617 52.043 5.65971L52.0598 5.75985C52.1933 6.74473 52.3769 7.72954 52.9778 10.3169L53.0113 10.4505L58.2527 34.7546H57.0842L51.8594 10.5339C51.1751 7.72954 50.9247 6.42755 50.0901 5.37593L50.0399 5.32586V5.27578H51.993ZM139.495 11.9026L139.461 11.9528C133.586 12.7707 127.81 22.9197 127.677 30.1642C127.643 31.9669 128.745 34.2539 131.833 34.6879L131.933 34.7046L131.899 34.7546C127.911 34.4208 126.524 31.3828 126.558 29.3129C126.726 21.9348 132.601 12.6372 139.495 11.9026ZM74.1606 15.2244C74.8116 15.2244 75.1955 15.5917 75.2289 16.2928C75.2623 16.9104 74.845 18.179 74.3442 19.481L74.2608 19.6981L74.1606 19.9485C73.7766 20.9166 73.376 21.8681 73.0923 22.5691L73.0421 22.6693L68.218 34.7379H67.0161L71.8904 22.5858C72.5414 21 74.1606 17.3277 74.1104 16.3429C74.0937 15.8755 73.8433 15.6919 73.4762 15.6919C72.6081 15.6919 71.0892 17.8619 70.1042 20.0652L70.0542 20.1654H69.9875C70.989 17.6448 72.6415 15.2244 74.1606 15.2244ZM75.4458 14.3398C76.6477 14.3398 77.3322 15.0909 77.3989 16.1592C77.4824 17.7617 76.1637 20.7998 75.3791 22.7193L75.329 22.8195L70.6384 34.7379H69.4365L74.2273 22.7193C74.9117 20.8999 76.3639 17.6448 76.2972 16.1926C76.2471 15.3079 75.7129 14.7905 74.7949 14.7905C72.7083 14.7905 70.9723 17.4112 69.9373 20.0486L69.904 20.1487H69.8372C70.8054 17.1608 72.8419 14.3398 75.4458 14.3398ZM78.0332 12.5203C80.3534 12.5203 81.6221 14.0059 81.7222 15.9256C81.8391 18.1123 81.0712 20.2322 80.2366 22.3522L80.103 22.6693L80.0029 22.903L79.9028 23.1366L75.4626 34.7379H74.2608L78.7843 23.0533C79.6357 20.7664 80.704 18.2625 80.5872 15.9756C80.5037 14.2563 79.3686 12.9877 77.3321 12.9877C73.0756 12.9877 70.6384 16.3261 69.5534 20.0486L69.52 20.1654H69.47C70.4715 16.1092 73.2425 12.5203 78.0332 12.5203ZM76.7479 13.405C78.5006 13.405 79.4855 14.5234 79.5689 16.009C79.6691 18.0621 78.5339 20.6829 77.716 22.8029L77.666 22.9364L73.0923 34.7212H71.8403L76.4975 22.8864C77.3154 20.8331 78.5507 17.8952 78.4505 16.0925C78.3837 14.7905 77.5491 13.8557 76.0635 13.8557C72.9587 13.8557 70.8054 16.8436 69.7371 20.0319L69.7036 20.1321H69.6536C70.6719 16.6767 72.9754 13.405 76.7479 13.405ZM90.6026 11.6355C92.1383 11.6355 93.3903 12.6205 93.4904 14.7571C93.7241 19.1304 89.7847 22.7027 85.4613 23.4037L85.3278 23.4205L85.2944 23.3704C89.0002 22.5358 92.6725 19.1806 92.4555 15.2244C92.3553 13.3549 91.2537 12.4703 89.9015 12.4703C87.4144 12.4703 85.2444 14.5734 83.8923 17.3611C83.8755 17.4946 83.8755 17.6448 83.8588 17.7951C85.0942 15.2244 87.0137 13.2548 89.1671 13.2548C90.3689 13.2548 91.287 14.0393 91.3704 15.6752C91.5541 19.0804 88.3658 22.4022 85.2944 23.2368L85.1942 23.2535L85.1442 23.2035C87.6814 22.2687 90.4858 19.0971 90.3356 16.1259C90.2687 14.7738 89.4842 14.0727 88.466 14.0727C86.5965 14.0727 84.9272 15.959 83.7754 18.346C83.742 18.5296 83.7253 18.6965 83.6919 18.8802C84.7102 16.66 86.1958 14.874 87.7315 14.874C88.6496 14.874 89.2506 15.4748 89.3006 16.5932C89.4341 19.0804 87.1973 22.1018 85.1275 23.0866L85.0607 23.12L85.0107 23.0699C86.5296 22.0851 88.3658 19.1138 88.2656 17.0606C88.2156 16.226 87.7816 15.7086 87.0471 15.7086C85.8119 15.7086 84.5098 17.4613 83.5584 19.5144C83.4749 19.8483 83.3915 20.1654 83.2746 20.4993C84.1594 18.4461 85.3444 16.5098 86.2792 16.5098C86.8802 16.5098 87.1306 16.9271 87.164 17.528C87.2475 19.0471 86.0456 21.9014 84.9606 22.9197L84.9105 22.9697L84.8604 22.9197C85.8119 21.2171 86.2459 19.214 86.1625 18.0121C86.129 17.695 86.0121 17.3277 85.5948 17.3277C85.0942 17.3277 84.2094 18.7967 83.4082 20.3825L83.3247 20.566L83.2413 20.7497C83.2078 20.8164 83.1745 20.8665 83.1578 20.9333L83.1077 21.0168C82.8907 21.651 82.6403 22.302 82.3899 22.9864L82.2898 23.2535L77.9331 34.7046H76.7312L81.1213 23.1534C82.0561 20.6829 82.9575 18.5463 82.824 15.7921C82.7071 13.6888 81.2882 12.0696 78.7009 12.0696C73.3427 12.0696 70.5383 15.8088 69.47 19.9985L69.4365 20.1321H69.3865C70.3713 15.6084 73.3593 11.6189 79.3686 11.6189C82.2397 11.6189 83.8088 13.4384 83.9423 15.7586C83.959 16.1259 83.959 16.4764 83.959 16.8102C85.3946 13.839 87.815 11.6355 90.6026 11.6355ZM109.999 1.10266C110.4 1.53666 107.629 8.31385 107.395 8.93139V8.94807L99.9336 28.2112C99.5665 29.1961 98.7318 31.3661 98.615 32.5679C98.5148 33.8031 99.4329 34.4041 100.651 34.6377L100.718 34.6545L100.685 34.7046C98.8654 34.4208 97.4966 33.5694 97.6301 32.0171C97.7303 30.7986 98.4313 28.9457 98.8486 27.844L98.8821 27.7438L106.177 8.84801C106.36 8.33052 106.911 7.0118 107.412 5.57623L107.495 5.32586C107.996 3.8903 108.447 2.40467 108.447 1.55336V1.48659V1.41982L109.999 1.10266ZM140.53 12.1197C142.866 12.5036 143.768 14.1394 143.734 15.7252C143.601 22.9364 138.393 33.7198 133.269 34.6545L133.119 34.6712L133.152 34.6211C137.308 33.8533 142.483 22.0516 142.617 14.9407C142.633 13.622 142.082 12.6372 140.613 12.2199L140.53 12.2032V12.1197ZM112.537 15.0742C113.505 15.2078 114.089 15.9923 113.972 17.311C113.505 22.4189 107.979 32.7682 102.054 34.571L101.87 34.6211L101.903 34.5544C107.095 32.3009 112.286 21.818 112.703 17.2944C112.787 16.3094 112.336 15.6919 111.652 15.6084C110.617 15.4582 109.165 16.3596 108.063 17.6615L107.996 17.745L107.963 17.695C109.265 15.9756 111.101 14.874 112.537 15.0742ZM139.428 12.053L139.395 12.103C135.372 12.9209 129.997 24.9395 129.88 31.7834C129.864 33.1188 130.347 34.2204 131.933 34.5377L132.016 34.5544L131.983 34.6044C129.547 34.3373 128.745 32.5346 128.778 30.9488C128.911 23.9045 134.438 12.7874 139.428 12.053ZM113.137 0.485046L101.987 29.1126C101.57 30.1809 100.618 32.3676 100.518 33.5862C100.485 34.0535 100.635 34.4041 100.785 34.5042L100.802 34.521L100.768 34.6044C100.668 34.571 100.601 34.5377 100.518 34.5042C100 34.2539 99.5998 33.6196 99.6165 33.1021C99.6666 31.9169 100.518 29.797 100.935 28.7453L100.969 28.6619L108.564 9.0149C108.631 8.81453 109.482 6.71137 110.266 4.67485L110.35 4.44116C111.017 2.68845 111.635 1.05258 111.618 0.818896V0.802194L113.137 0.485046ZM55.1979 5.27578C54.8975 6.26063 54.7138 7.69618 55.4483 10.7843L55.4817 10.9345L59.8218 31.4829L59.0539 33.1021L54.1796 10.4003C53.679 8.19698 53.5454 7.06184 53.5119 6.02693V5.89339C53.5119 5.75985 53.5119 5.62631 53.5119 5.49277V5.35924V5.29247L55.1979 5.27578ZM58.6031 5.27578V5.32586C57.5348 6.27732 57.2511 7.96326 57.8687 11.1515L57.9021 11.2851L61.3908 28.1945L60.6062 29.8303L56.6669 10.9678C56.0159 7.77969 56.1827 6.52771 56.7336 5.32586L56.7504 5.27578H58.6031ZM63.4274 5.27578V5.32586C60.4393 5.89339 59.5714 7.56264 60.3058 11.3685L62.9432 24.9061L62.1587 26.5586L59.1373 11.4019C58.2025 6.97845 59.805 5.72648 60.623 5.30916L60.6731 5.29247L63.4274 5.27578ZM77.8662 5.27578V5.32586C73.3427 6.69457 71.3061 9.31534 67.8341 15.8254L67.734 16.0257L67.6505 15.9756C70.7052 9.44888 72.1742 6.7614 74.5779 5.30916L74.6446 5.25909C74.6446 5.27578 77.8662 5.27578 77.8662 5.27578ZM72.4412 5.27578V5.32586C72.0573 5.89339 71.7235 6.47763 71.3396 7.24553L71.2727 7.39575C70.4882 8.98155 69.52 11.3184 67.6505 15.7753L67.5838 15.9423L67.5003 15.8921C69.3531 10.7176 70.3046 8.18031 70.0876 5.4594V5.35924V5.29247C70.0709 5.27578 72.4412 5.27578 72.4412 5.27578ZM68.2347 5.27578C69.854 6.91162 69.2863 9.61577 67.4836 15.6417L67.4334 15.8254L67.35 15.7753C69.0694 8.96475 68.5186 6.29401 65.998 5.35924L65.9145 5.32586V5.27578H68.2347Z" fill="#0E214B"/>
<path d="M23.753 15.8911L23.8197 15.9411C25.4221 10.633 25.9396 8.296 24.5207 6.86053H22.5009V6.91057C24.7544 7.69513 25.2719 9.9653 23.753 15.8911Z" fill="#8EC089"/>
<path fill-rule="evenodd" clip-rule="evenodd" d="M30.1278 6.86053C27.9912 8.09575 26.7225 10.3993 24.035 16.0747L24.1019 16.1248C27.19 10.3826 28.9427 8.09575 32.9322 6.91057V6.86053H30.1278Z" fill="#2474DE"/>
<path d="M23.8875 15.9913L23.9543 16.0413C26.4915 10.0822 27.1424 8.46301 28.1941 6.91057V6.86053H26.141V6.92725C26.358 9.29761 25.5233 11.4843 23.8875 15.9913Z" fill="#E85F24"/>
<path fill-rule="evenodd" clip-rule="evenodd" d="M6.9941 6.86053H5.17462V6.91057C6.84387 7.56159 7.64511 8.81348 8.31281 11.7347C8.31281 11.768 12.7864 32.233 12.7864 32.233H13.8047L9.29765 11.5678C8.51312 8.02892 7.69518 7.3779 6.9941 6.86053Z" fill="#76C5F7"/>
<path fill-rule="evenodd" clip-rule="evenodd" d="M16.5272 30.7974L17.1949 29.412L13.4224 11.718C12.7547 8.9637 12.9049 7.71181 13.1887 6.86053H11.7198C11.7031 7.97889 11.7532 8.89699 12.2874 11.2506L16.5272 30.7974Z" fill="#2474DE"/>
<path d="M10.3846 6.86053H8.68195V6.91057C9.44981 7.82867 9.6668 8.94702 10.2677 11.4009L14.8081 32.2497H15.8263L11.286 11.3174C10.635 8.64658 10.5348 7.89538 10.3846 6.86053Z" fill="#318EEE"/>
<path d="M17.8756 27.9932L18.56 26.5909L15.522 12.0351C14.9544 9.2141 15.2048 7.74516 16.1396 6.91057V6.86053H14.5204C14.0196 7.91206 13.8694 8.9637 14.437 11.768L17.8756 27.9932Z" fill="#E85F24"/>
<path d="M16.5927 12.1353C15.7748 8.24601 17.2438 7.21117 17.9281 6.87726H20.3319V6.92729C17.7279 7.4281 16.9767 8.847 17.611 12.1353L19.9146 23.7867L19.2302 25.2056L16.5927 12.1353Z" fill="#8EC089"/>
</svg>
